<svg height="50" viewBox="0 0 51 50" width="51" xmlns="http://www.w3.org/2000/svg"><path d="m38.4555836 59.7573396c2.4253717-.3394903 4.7391897-1.0269727 6.8893637-2.0103569l-.0001183-37.7846439c4.7902564 3.2816389 7.9330429 8.7926315 7.9330429 15.0376612v2.1398747c0 .8350731.4175365 1.3569938 1.2526096 1.3569938h4.0709812c.8350731 0 1.3569937-.5219207 1.3569937-1.3569938v-2.1398747c0-12.6202772-9.3513338-23.0564333-21.5028728-24.7573396l-.0002523 20.3210139c-.0000021.5219207-.5219271 1.0438414-1.0438477 1.0438116h-4.8016702c-.5219206.0000298-1.0438423-.5218909-1.0438427-1.0452145l-.0001447-20.3340131c-2.4241921.3288977-4.7379766 1.0052809-6.8895439 1.97734l.0000638 37.759934c-4.7314078-3.2899044-7.8285367-8.7660317-7.8285367-14.9655323v-2.0354906c0-.8350731-.5219206-1.3569937-1.3569937-1.3569937h-4.1753653c-.8350731 0-1.35699377.5219206-1.35699377 1.3569937v2.0354906c0 12.6564292 9.40498627 23.1162062 21.60736957 24.7717417l.0001461-20.2310617c0-.5218909.5219207-1.0438403 1.0438413-1.0438399l4.8016702-.0000014c.5219206.0000298 1.0438413.5219504 1.0438413 1.0438413z" fill="#ff0078" fill-rule="evenodd" transform="translate(-9 -10)"/></svg>