<svg height="28" viewBox="0 0 31 28" width="31" xmlns="http://www.w3.org/2000/svg"><path d="m144.23759 1669.08132c44.420207 1.98183-11.412576 50.91239-12.84769 12.77935-.136678-3.69029.273355-8.26899 4.031988-9.36241 0 7.31225-1.503453 18.38313 8.95238 18.38313 7.722282 0 11.344237-9.43075 6.013813-15.03453-1.70847-1.57179-3.758633-2.59687-6.150491-2.59687-.683387 0-1.366775.06834-1.981824.27335v4.23701c.54671-.27336 1.230098-.47837 1.913486-.47837 6.082151 0 5.877135 8.95238.205016 8.95238-4.305343 0-4.647037-3.3486-4.647037-6.62886v-4.98874-1.16175-.61505c.068339-3.48528.136678-3.96365 4.510359-3.75864z" fill="#7e8c9a" fill-rule="evenodd" transform="translate(-131 -1669)"/></svg>