<svg height="26" viewBox="0 0 31 26" width="31" xmlns="http://www.w3.org/2000/svg"><path d="m235.244196 1676.82928.298112-1.87191 1.666369 1.87191zm-.667566 2.54796h2.810405l-6.08454 7.3203zm-16.576209 0 3.251203 7.14365-5.937607-7.14365zm1.730918-3.58413-.360113-2.26515h3.235066zm13.101634-.02633-2.857967-2.23882h3.214682zm-10.299723 1.0625 3.750604-2.95479 3.773536 2.95479zm9.252509 2.54796-5.445 12.17333-5.540125-12.17333zm-14.74592-4.28567.276879 1.73771h-1.823494zm23.988237 2.19634-5.235218-5.8807c-.242057-.27178-.58773-.42721-.952089-.42721h-8.561161-.00085-8.418475c-.363509 0-.709183.15543-.95124.42721l-5.235218 5.8807c-.419565.47053-.431455 1.17631-.028877 1.66127l13.726735 16.51251c.003397.00425.007644.00765.011041.01104.014439.01784.033124.03058.048411.04672.060302.06455.1257.12145.197043.17071.028877.02038.058603.03652.089179.05436.067946.03907.138439.07134.211481.09767.031425.01104.062.02293.094275.03142.106165.02888.215727.04757.327838.04757h.004246c.004247 0 .007644-.0017.011891-.0017.107864-.00085.21233-.01869.315098-.04672.032274-.00849.06285-.02123.094275-.03227.07474-.02633.144384-.05945.21233-.09852.029726-.01784.059453-.03397.08748-.05351.074741-.05181.143536-.11211.206385-.18005.01274-.01359.027179-.02379.039069-.03822.002548-.00255.005945-.0051.008493-.0085l13.725886-16.51251c.403427-.48496.391537-1.19074-.028028-1.66127z" fill="#7e8c9a" fill-rule="evenodd" transform="translate(-211 -1670)"/></svg>