<svg height="25" viewBox="0 0 26 25" width="26" xmlns="http://www.w3.org/2000/svg"><path d="m269.814821 1670c-7.076793 0-12.814821 5.73803-12.814821 12.81642 0 5.66192 3.670992 10.46578 8.764873 12.16107.640942.11697.842838-.26279.842838-.60249 0-.30445.00641-1.1553 0-2.22487-3.564435.77474-4.30312-1.68808-4.30312-1.68808-.582455-1.48057-1.422089-1.87475-1.422089-1.87475-1.163308-.79477.087329-.77955.087329-.77955 1.285888.09054 1.963684 1.32115 1.963684 1.32115 1.143279 1.95727 2.998804 1.39164 3.728676 1.06476.116972-.82842.448659-1.39325.814797-1.71372-2.84578-.32367-5.837374-1.42289-5.837374-6.3341 0-1.39966.499133-2.54294 1.318737-3.43865-.132194-.32368-.572841-1.62719.125785-3.39218 0 0 1.07598-.34451 3.523575 1.31473 1.022302-.28442 2.119113-.42623 3.208713-.43104 1.088799.00481 2.184809.14662 3.208713.43104 2.447594-1.65844 3.521972-1.31473 3.521972-1.31473.698626 1.76499.25878 3.0685.127387 3.39218.819604.89571 1.317135 2.03899 1.317135 3.43865 0 4.92403-2.996401 6.00722-5.851795 6.32369.459876.39658.877289 1.16571.877289 2.36106v3.54761c0 .34291.206703.72187.857259.59768 5.089074-1.69769 8.756861-6.49914 8.756861-12.15946 0-7.07839-5.738027-12.81642-12.816424-12.81642z" fill="#7e8c9a" fill-rule="evenodd" transform="translate(-257 -1670)"/></svg>