<svg height="23" viewBox="0 0 31 23" width="31" xmlns="http://www.w3.org/2000/svg"><path d="m186.480282 1692.71194c.097966.17144 0 .33063-.122457.33063h-3.5635c-.181795-.00329-.346808-.10702-.428599-.26941-1.310291-2.69405-2.68181-5.40035-4.004346-8.30258-1.22457 2.74303-2.583844 5.64527-3.90638 8.35157-.065335.14215-.211192.22967-.367371.22042h-3.404306c-.208177 0-.220423-.15919-.122457-.28165l5.608533-10.67826-5.424848-10.80071c-.055931-.04495-.074878-.12176-.046268-.18756.02861-.06581.097707-.10434.168726-.09409h3.490025c.208177 0 .281652 0 .367372.23267 1.285799 2.73079 2.632826 5.55955 3.881888 8.33932 1.224571-2.73079 2.522615-5.57179 3.808414-8.27809.097966-.17144.159195-.26941.367372-.26941h3.269603c.159194 0 .220422.12246.122457.28165l-5.412602 10.45784zm14.021333-.75924c0 .12246 0 .17144-.159194.23267-1.63462.79183-3.424912 1.21012-5.241162 1.22457-4.445191 0-7.616829-2.73079-7.616829-8.29034 0-4.77583 3.171638-8.49852 8.204623-8.49852.354686-.02499.71069-.02499 1.065376 0v-5.4126c.006086-.11236.095822-.20209.208177-.20818h3.232866c.159194 0 .208177.06123.208177.15919v18.79716c-.011713.66679.021014 1.33362.097966 1.99605zm-3.747186-12.111c-.389861-.15168-.806489-.2225-1.224571-.20818-2.571598 0-4.371716 1.98381-4.371716 5.2779 0 3.77168 1.836856 5.29015 4.151294 5.29015.480115.01525.958563-.06379 1.408256-.23267z" fill="#7e8c9a" fill-rule="evenodd" transform="translate(-170 -1671)"/></svg>