<svg height="26" viewBox="0 0 29 26" width="29" xmlns="http://www.w3.org/2000/svg"><path d="m372.5625 1670c3.003048 0 5.4375 2.43445 5.4375 5.4375v5.4375c0 1.20833-.513542 1.8125-1.540625 1.8125s-1.549688-.60417-1.567813-1.8125l.001295-5.4375c0-.92951-.699698-1.69561-1.601125-1.80031l-.211375-.01219h-18.642857c-.929515 0-1.695607.6997-1.800306 1.60112l-.012194.21138v14.5c0 .92951.699698 1.69561 1.601124 1.80031l.211376.01219h5.4375c1.208333 0 1.8125.60417 1.8125 1.8125s-.604167 1.8125-1.8125 1.8125h-5.4375c-3.003048 0-5.4375-2.43445-5.4375-5.4375v-14.5c0-3.00305 2.434452-5.4375 5.4375-5.4375zm-10.875 9.96875 14.5 6.34375-4.53125 2.71875 3.625 4.53125-1.8125 1.8125-4.53125-4.53125-2.71875 4.53125z" fill="#7e8c9a" fill-rule="evenodd" transform="translate(-349 -1670)"/></svg>