<svg height="12" viewBox="0 0 14 12" width="14" xmlns="http://www.w3.org/2000/svg"><path d="m278.681461 175.897847h10.621257l-3.655359 3.655359c-.26611.26611-.26611.697646-.00017.963586.266111.266111.697816.266111.963927 0l4.818443-4.818613c.031688-.031688.059968-.066613.084842-.103753.011414-.017207.019421-.035776.029303-.053665.011244-.021125.024191-.041228.033221-.063546.009711-.022999.015162-.046851.021977-.070702.005622-.01891.012948-.036969.016866-.056391.008859-.044295.013459-.08893.013459-.133736 0-.000511-.00017-.001023-.00017-.001534-.000171-.044124-.0046-.088419-.013289-.131862-.004089-.020444-.011755-.039355-.017718-.059458-.006644-.022659-.011755-.045658-.020955-.067635-.009881-.023681-.02317-.045147-.035436-.067465-.0092-.016695-.016525-.033732-.027088-.049746-.024873-.037651-.053495-.072746-.085353-.104605l-4.818272-4.818102c-.266111-.26611-.697646-.26611-.963757-.00017-.266111.266111-.266111.697646 0 .963927l3.655359 3.655188h-10.621087c-.376337 0-.681461.305125-.681461.681462s.305124.681461.681461.681461z" transform="translate(-278 -169)"/></svg>
