<svg height="16" viewBox="0 0 18 16" width="18" xmlns="http://www.w3.org/2000/svg"><path d="m53.1902655 2.52566372c-.5973451.3318584-1.3274336.53097345-1.9911505.59734513.7300885-.46460177 1.261062-1.19469027 1.5265487-2.05752212-.6637168.39823008-1.3938053.73008849-2.2566372.92920354-.6637168-.7300885-1.5265486-1.19469027-2.5221238-1.19469027-1.9247788 0-3.5176992 1.65929204-3.5176992 3.78318584 0 .26548673 0 .59734513.0663717.86283186-2.920354-.13274336-5.5088495-1.65929204-7.2345133-3.9159292-.3318584.53097345-.4646017 1.19469026-.4646017 1.92477876 0 1.32743362.5973451 2.45575221 1.5265486 3.11946902-.5973451 0-1.1283185-.19911504-1.5929203-.46460177v.06637168c0 1.7920354 1.1946903 3.31858408 2.7876106 3.71681416-.2654867.06637169-.5973451.13274335-.9292035.13274335-.1991151 0-.4646018 0-.6637168-.06637166.4646017 1.52654866 1.7256637 2.58849556 3.2522124 2.58849556-1.1946903.9955752-2.721239 1.5929204-4.3141593 1.5929204-.2654868 0-.5309735 0-.8628319-.0663717 1.5265487 1.0619469 3.3849558 1.7256637 5.3761062 1.7256637 6.4380531 0 9.9557522-5.7079646 9.9557522-10.68584071 0-.13274336 0-.33185841 0-.46460177.7964602-.66371681 1.3938053-1.32743363 1.8584071-2.1238938z" transform="translate(-36.1)"/></svg>
