<svg height="15" viewBox="0 0 16 15" width="16" xmlns="http://www.w3.org/2000/svg"><path d="m79.7968929 1c-4.2460763 0-7.6888929 3.44281656-7.6888929 7.6898543 0 3.3971495 2.202595 6.2794628 5.2589239 7.2966368.3845648.070183.5057028-.1576716.5057028-.361491 0-.1826683.0038456-.6931781 0-1.3349206-2.1386611.4648427-2.5818721-1.0128476-2.5818721-1.0128476-.3494733-.8883447-.8532532-1.1248521-.8532532-1.1248521-.6979851-.4768604.052397-.467727.052397-.467727.7715331.0543198 1.1782104.7926843 1.1782104.7926843.6859675 1.1743648 1.7992827.8349863 2.2372059.6388583.0701831-.49705.2691953-.8359478.488878-1.0282302-1.7074678-.1942052-3.5024241-.8537339-3.5024241-3.80046185 0-.83979342.2994799-1.52576092.7912421-2.06319026-.0793165-.19420523-.3437048-.97631394.0754709-2.03530931 0 0 .6455882-.20670359 2.1141451.78883858.6133809-.17065063 1.2714674-.2557356 1.9252276-.25861984.6532795.00288424 1.3108853.08796921 1.9252276.25861984 1.4685569-.99506147 2.1131837-.78883858 2.1131837-.78883858.4191757 1.05899537.1552681 1.84110408.0764323 2.03530931.4917622.53742934.7902807 1.22339684.7902807 2.06319026 0 2.95441925-1.7978406 3.60433375-3.5110768 3.79421265.2759252.2379495.5263731.6994273.5263731 1.4166407v2.1285663c0 .2057421.1240221.4331161.5143554.3586067 3.0534447-1.0186161 5.2541169-3.8994873 5.2541169-7.2956754 0-4.24703774-3.4428166-7.6898543-7.6898543-7.6898543z" fill-rule="evenodd" transform="translate(-72.1 -1)"/></svg>
