<svg height="29" viewBox="0 0 29 29" width="29" xmlns="http://www.w3.org/2000/svg" xmlns:xlink="http://www.w3.org/1999/xlink"><defs><path id="a" d="m29 18.0355339c.5522847 0 1 .4477153 1 1v1c0 .5522848-.4477153 1-1 1h-1c-.5522847 0-1-.4477152-1-1v-1c0-.5522847.4477153-1 1-1zm-6.1928929-2.6142132.7071068.7071068c.3905243.3905243.3905243 1.0236892 0 1.4142135l-.7071068.7071068c-.3905243.3905243-1.0236892.3905243-1.4142135 0l-.7071068-.7071068c-.3905243-.3905243-.3905243-1.0236892 0-1.4142135l.7071068-.7071068c.3905243-.3905243 1.0236892-.3905243 1.4142135 0zm13.1-.3000004.7071068.7071068c.3905243.3905243.3905243 1.0236893 0 1.4142136l-.7071068.7071068c-.3905243.3905243-1.0236892.3905243-1.4142135 0l-.7071068-.7071068c-.3905243-.3905243-.3905243-1.0236893 0-1.4142136l.7071068-.7071068c.3905243-.3905242 1.0236892-.3905242 1.4142135 0zm-7.4071071-10.08578639c3.0375661 0 5.5 2.46243387 5.5 5.49999999 0 3.0375661-2.4624339 5.5-5.5 5.5s-5.5-2.4624339-5.5-5.5c0-3.03756612 2.4624339-5.49999999 5.5-5.49999999zm9.5 4c.5522847 0 1 .44771525 1 .99999999v1c0 .5522848-.4477153 1-1 1h-1c-.5522847 0-1-.4477152-1-1v-1c0-.55228474.4477153-.99999999 1-.99999999zm-18 0c.5522847 0 1 .44771525 1 .99999999v1c0 .5522848-.4477153 1-1 1h-1c-.5522847 0-1-.4477152-1-1v-1c0-.55228474.4477153-.99999999 1-.99999999zm2.8071071-6.21421322.7071068.70710678c.3905243.39052429.3905243 1.02368927 0 1.41421356l-.7071068.70710678c-.3905243.39052429-1.0236892.39052429-1.4142135 0l-.7071068-.70710678c-.3905243-.39052429-.3905243-1.02368927 0-1.41421356l.7071068-.70710678c.3905243-.39052429 1.0236892-.39052429 1.4142135 0zm12.8 0 .7071068.70710678c.3905243.39052429.3905243 1.02368927 0 1.41421356l-.7071068.70710678c-.3905243.39052429-1.0236892.39052429-1.4142135 0l-.7071068-.70710678c-.3905243-.39052429-.3905243-1.02368927 0-1.41421356l.7071068-.70710678c.3905243-.39052429 1.0236892-.39052429 1.4142135 0zm-6.6071071-2.78578678c.5522847 0 1 .44771525 1 1v1c0 .55228475-.4477153 1-1 1h-1c-.5522847 0-1-.44771525-1-1v-1c0-.55228475.4477153-1 1-1z"/><filter id="b" height="157.1%" width="157.1%" x="-28.6%" y="-28.6%"><feOffset dx="0" dy="0" in="SourceAlpha" result="shadowOffsetOuter1"/><feGaussianBlur in="shadowOffsetOuter1" result="shadowBlurOuter1" stdDeviation="2"/><feColorMatrix in="shadowBlurOuter1" type="matrix" values="0 0 0 0 0   0 0 0 0 0   0 0 0 0 0  0 0 0 0.100270945 0"/></filter></defs><g fill="none" fill-rule="evenodd" transform="translate(-14 3.964466)"><use fill="#000" filter="url(#b)" xlink:href="#a"/><use fill="#ffc239" fill-rule="evenodd" xlink:href="#a"/></g></svg>