<svg height="29" viewBox="0 0 25 29" width="25" xmlns="http://www.w3.org/2000/svg" xmlns:xlink="http://www.w3.org/1999/xlink"><defs><path id="a" d="m24 11.5355339c0 4.1421356 3.3578644 7.5 7.5 7.5 1.2990915 0 2.5210398-.3302889 3.5864513-.911473-1.2712513 2.3304669-3.7442194 3.911473-6.5864513 3.911473-4.1421356 0-7.5-3.3578644-7.5-7.5 0-2.8430442 1.5819099-5.31661348 3.9135487-6.58852702-.5828466 1.06595918-.9135487 2.28862332-.9135487 3.58852702zm12-6.32842712c0 .94280904.2357023 1.64991582.7071068 2.12132034.4714045.47140453 1.1785113.70710679 2.1213203.70710679-.942809 0-1.6499158.23570226-2.1213203.70710678s-.7071068 1.1785113-.7071068 2.12132031c0-.94280901-.2357023-1.64991579-.7071068-2.12132031s-1.1785113-.70710678-2.1213203-.70710678c.942809 0 1.6499158-.23570226 2.1213203-.70710679.4714045-.47140452.7071068-1.1785113.7071068-2.12132034zm-5.5-5.20710678c0 1.1785113.2946278 2.06239478.8838835 2.65165043.5892556.58925565 1.4731391.88388348 2.6516504.88388348-1.1785113 0-2.0623948.29462782-2.6516504.88388347-.5892557.58925565-.8838835 1.47313913-.8838835 2.65165043 0-1.1785113-.2946278-2.06239478-.8838835-2.65165043-.5892556-.58925565-1.4731391-.88388347-2.6516504-.88388347 1.1785113 0 2.0623948-.29462783 2.6516504-.88388348.5892557-.58925565.8838835-1.47313913.8838835-2.65165043z"/><filter id="b" height="154.5%" width="167.3%" x="-33.7%" y="-27.2%"><feOffset dx="0" dy="0" in="SourceAlpha" result="shadowOffsetOuter1"/><feGaussianBlur in="shadowOffsetOuter1" result="shadowBlurOuter1" stdDeviation="2"/><feColorMatrix in="shadowBlurOuter1" type="matrix" values="0 0 0 0 0   0 0 0 0 0   0 0 0 0 0  0 0 0 0.4 0"/></filter></defs><g fill="none" fill-rule="evenodd" transform="translate(-17 2.964466)"><use fill="#000" filter="url(#b)" xlink:href="#a"/><use fill="#7e8c9a" fill-rule="evenodd" xlink:href="#a"/></g></svg>