<svg height="25" viewBox="0 0 282 25" width="282" xmlns="http://www.w3.org/2000/svg"><path d="m866.366632 1203.38484c-.5287 2.78447-1.044701 5.57081-1.590427 8.35316-.336209 1.71347-.683673 3.4267-1.111077 5.12583-.069839.27591-.548612.63354-.896942.68379-.907908.1308-1.848716.11131-2.776537.15287-.562176.02536-.882224-.16931-1.007184-.63448-.550632-2.05324-1.151479-4.09756-1.68191-6.15409-1.072117-4.15768-2.1122-8.32076-3.160941-12.48243-.378055-1.50001-.742257-3.00237-1.115117-4.50333-.102739-.41421.092926-.74766.593344-.76996 1.424487-.06387 2.8559-.10426 4.280098-.06176.63086.01879.747163.54102.821331.9752.449625 2.62925.854807 5.26413 1.350607 7.88751.343135 1.81491.807767 3.61455 1.347722 5.42405.197973-1.06701.395659-2.13425.593632-3.20126.427693-2.30286.882801-4.60266 1.270379-6.90998.163054-.96979.180947-1.95579.269545-2.93427.065798-.73005.340249-1.03367 1.211217-1.08557 1.021325-.06034 2.053039-.03357 3.078981-.01009.680499.0155.942251.43417 1.044412.90005.398257 1.80833.809211 3.61572 1.144842 5.43203.458572 2.48226.851633 4.97273 1.277306 7.45898.02251.13267.085711.26065.253383.39708.191047-.79345.432887-1.5815.564196-2.38152.468672-2.85468.902136-5.71288 1.343681-8.57037.112839-.73005.181235-1.46503.315719-2.19202.152088-.82374.606042-1.13041 1.618132-1.13346.979479-.00259 1.95838.01784 2.937859.01972.994775.00211 1.252775.25548 1.054802 1.03414-.365357 1.43919-.748029 2.87557-1.078466 4.31993-1.152634 5.04036-2.288818 10.08306-3.423848 15.126-.234913 1.04283-.44039 2.09011-.656834 3.13552-.097255.46869-.437504.72535-1.015841.75329-.901848.04344-1.804273.09111-2.707275.10403-.991312.01409-1.336756-.25783-1.48134-1.07335-.369108-2.08002-.737062-4.16003-1.117425-6.23863-.395371-2.16197-.804016-4.32229-1.210064-6.48284-.029436-.15569-.087154-.30808-.131886-.46189-.069551-.0007-.138813-.00141-.208074-.00188zm50.987942.17473c-.329283 1.58525-.651351 3.17145-.98958 4.75529-.339094 1.59042-.711377 3.17637-1.036908 4.76867-.234914 1.14779-.427115 2.30145-.619606 3.45464-.113416.67815-.435773.93269-1.276439.92283-.904157-.01033-1.814085.00986-2.70843-.07585-.325242-.03123-.813251-.28812-.882512-.5126-.402297-1.29784-.701277-2.61704-1.035755-3.92873-.305618-1.19922-.623068-2.39632-.915989-3.59717-.556981-2.2836-1.073848-4.57378-1.656225-6.85291-.490606-1.91846-1.058265-3.82377-1.576286-5.73777-.232028-.85708-.453954-1.71722-.628264-2.58299-.133617-.66336.137081-.96416.938788-.95594 1.227668.01244 2.462838.06363 3.674345.21133.296095.03617.666935.48749.737928.78923.381518 1.62493.652794 3.26631 1.011224 4.89523.526391 2.39279 1.094916 4.77971 1.643528 7.16945.055121.23998.097255.48185.286282.74742.043-.19325.090907-.38604.129001-.57976.803149-4.07267 1.613225-8.14441 2.39906-12.21919.114282-.59034.232027-1.00033 1.195922-.88926.907908.10473 1.84785.02677 2.77394.02865.451068.00117.648176.16954.720612.54924.732157 3.83597 1.472105 7.67125 2.250147 11.50112.157571.77607.485122 1.52937.894056 2.28266.146893-.63448.328128-1.2652.435196-1.90437.654236-3.90642 1.289715-7.81496 1.936448-11.72232.138235-.83618.412685-1.00925 1.424775-.97801.953795.02911 1.908743.02888 2.862538.05964.831431.02653 1.069231.20335.941096.85943-.416726 2.1359-.923204 4.26029-1.324923 6.39807-.698968 3.7188-1.664017 7.38994-2.73296 11.04887-.468672 1.6038-.646444 3.26372-.959855 4.89758-.174309.90922-.537068 1.14709-1.647567 1.14615-.672418-.00071-1.34599.02935-2.017831.06222-.963895.04744-1.494615-.29422-1.620729-1.02615-.530142-3.07423-1.058265-6.14893-1.613514-9.22011-.22943-1.26965-.525237-2.53109-.790741-3.79629-.07359.01057-.147181.02114-.220772.0317zm121.015036-4.36739c.99246-1.45211 1.93183-2.82462 2.8686-4.19807.25598-.375.43721-.80143.77689-1.11514.2909-.26887.73619-.53468 1.15263-.58517 1.0903-.13173 2.20195-.15005 3.30581-.20312.64443-.03123 1.01123.22167 1.01151.75471.00231 3.41283-.02251 6.82543-.00115 10.2378.0127 2.02295.11919 4.04544.13795 6.06815.01991 2.18521-.00202 4.37042-.03088 6.5554-.00693.54032-.45713.82961-1.07933.83384-1.20314.00822-2.40743-.03241-3.61028-.06974-.60575-.01879-.72581-.39591-.71859-.78101.04069-2.14294.13708-4.28541.14833-6.42836.01357-2.65743-.03723-5.31486-.05945-7.97228-.00288-.35716-.00029-.71408-.00029-1.07101-.07965-.01291-.1593-.02606-.23924-.03898-.5691.87705-1.15869 1.74587-1.70153 2.63395-.48108.78617-.88569 1.60357-1.37832 2.38457-.12842.20335-.45886.44498-.69665.44522-.23896 0-.56738-.23975-.70244-.44217-1.00574-1.50729-1.97079-3.03243-2.95517-4.54911-.11024-.17001-.26118-.32241-.39306-.48302-.09062.01197-.18182.02371-.27243.03522 0 1.31756-.00375 2.63512.00086 3.95268.00981 3.10781.01732 6.21562.04098 9.32343.00549.73521.071 1.47042.1062 2.20564.02598.53796-.29551.77842-.95639.78523-1.0522.01103-2.10383.05377-3.15603.07772-.64731.0148-.98698-.23857-.98092-.77537.01298-1.12336.05338-2.24696.03578-3.3701-.0707-4.51859-.19047-9.03647-.22712-13.5553-.01616-2.02107.129-4.04309.18325-6.0651.01501-.549.35151-.7749.98699-.77349.92897.00211 1.85882.02701 2.78692.00047.80344-.02301 1.26981.263 1.66951.82773 1.25017 1.76724 2.5725 3.50066 3.94706 5.35478zm-83.462925 4.71436c.929841 0 1.792441.08899 2.616081-.01879 1.64093-.21462 3.065128-.76151 3.403069-2.26998.128711-.57295.117168-1.18371.042423-1.76653-.16594-1.2922-1.421313-2.8859-3.576224-2.838-.549767.01221-1.099245.04837-1.649011.04485-.462901-.00282-.581223.17588-.596807.52505-.062047 1.38636-.170558 2.77131-.233759 4.15768-.032611.70656-.005772 1.41477-.005772 2.16572zm-.090329 3.45275c0 1.9929-.015872 3.90901.005772 5.82465.012986 1.14356.094658 2.28642.126114 3.42998.017316.63847-.180658.76151-.980922.77278-.927532.01315-1.854199.08007-2.781732.08947-1.201983.01221-1.502406-.25008-1.485379-1.23608.011543-.67252.042134-1.34504.047906-2.01779.02655-3.2912.057141-6.5824.068108-9.8736.011832-3.49502.008657-6.99005-.002021-10.48507-.001731-.47034.271565-.70069.806325-.69584 2.73296.0252 5.478906-.0591 8.195128.13111 4.882965.34189 7.864402 4.01443 7.348978 7.26689-.359296 2.26904-1.393607 4.16143-3.620955 5.57527-.39133.24844-.416726.44968-.260021.81599 1.36446 3.18084 2.700061 6.36989 4.034507 9.55942.264927.63307-.042712 1.00126-.868372 1.02169-1.176298.02935-2.354039.02043-3.530914.03205-.646734.00622-.991312-.25348-1.189863-.75294-1.166774-2.9331-2.378281-5.85447-3.526297-8.79227-.218464-.55933-.551498-.75799-1.235748-.67228-.312256.03898-.638076.00657-1.150614.00657zm44.25805-3.65467c.771982 0 1.618424-.00211 2.464864.00049.91627.00303 1.68219-.29143 2.23369-.86485.9968-1.03719 1.28048-2.23758 1.02594-3.52297-.13967-.70586-.22481-1.49696-1.08366-1.87103-1.40284-.61123-2.93699-.72699-4.640834-.53679zm-.205766 3.61431c0 .61663-.017026 1.18536.003175 1.75338.085712 2.40993.171135 4.81963.281376 7.22862.037806.81669-.176328 1.01371-1.184955 1.01864-.953217.00446-1.9073.02911-2.859075.07561-.76217.0371-1.153499-.27803-1.163311-.90006-.042712-2.61492-.119188-5.22915-.164786-7.84407-.01212-.69365.071859-1.38824.060027-2.08189-.061182-3.59576-.138236-7.19105-.211537-10.78658-.013276-.65396-.041269-1.30816-.047689-1.96237-.00368-.36279.140038-.68261.667583-.66359 3.382579.12234 6.769772.19936 10.144272.41304 2.65562.16837 4.07924 1.65547 4.94357 3.53635.80055 1.74305 1.04614 3.55984.37084 5.35431-.52927 1.40726-1.29433 2.75206-2.85359 3.66409-.14834.08665-.28397.3426-.23607.47457 1.07241 2.95752 2.16963 5.90918 3.26772 8.86083.15267.41046.35814.80848.49609 1.22176.18528.55534-.10014.90076-.79911.90804-1.15523.01221-2.31133-.02325-3.46685-.04603-.6121-.01197-.9206-.27896-1.09491-.76174-.98323-2.72412-1.99388-5.4419-3.01116-8.15803-.15296-.40858-.35872-.80989-.60518-1.1863-.09206-.14089-.37257-.28742-.56189-.28319-.62047.01456-1.238343.09722-1.97454.16461zm-56.688429-2.08077c0-.75634.018181-1.51316-.00404-2.26927-.044155-1.51035-.051081-3.02398-.188739-4.52916-.092926-1.02216-.763324-1.56811-1.851025-1.77193-1.782628-.33415-3.075518.32264-3.546499 1.89991-.211248.7075-.292631 1.45516-.301289 2.18544-.029725 2.45267-.046463 4.90675.02453 7.35824.041557 1.42675.197974 2.85608.421921 4.2718.150067.9496 1.042969 1.4932 2.108159 1.72238 1.0675.22989 2.035147.00259 2.713625-.79415.675881-.79392.874432-1.67918.823928-2.61892-.097832-1.81748-.23347-5.45363-.200571-5.45434zm-11.237747 1.31169c0-1.44976.003175-2.89976-.001154-4.34975-.003752-1.1222-.033477-2.24486-.023376-3.36682.023953-2.75793 2.878987-5.42287 6.800366-5.56681 1.719716-.06317 3.40509-.03875 5.033611.50626 2.559805.85709 3.877801 2.47474 4.211702 4.63013.209806 1.35326.239819 2.72647.309658 4.09217.108799 2.12275.257135 4.24714.244725 6.37036-.007791 1.35936-.129866 2.74149-.461457 4.07056-.464343 1.86445-1.756078 3.29237-3.941003 4.15721-1.937603.76715-3.92744 1.09612-6.055512.79767-2.892263-.40576-5.256692-2.35663-5.753646-4.98353-.288591-1.52443-.238954-3.09207-.322068-4.64093-.030591-.57108-.029436-1.71652-.041846-1.71652zm43.865191.87618c-.894633 1.05527-1.704132 1.9788-1.627944 3.29096.105625 1.81256-.004328 3.63333-.02655 5.45059-.003174.24515.053101.52622-.073302.72511-.145739.22895-.450203.53093-.710223.5476-1.124064.07279-2.257073.05518-3.38662.06481-.607196.00516-.951774-.24163-.961875-.74085-.024818-1.24453-.037805-2.4893-.046751-3.73383-.029725-4.23329-.080229-8.46658-.072437-12.69987.004329-2.1258.118323-4.2516.180947-6.37717.012698-.4316.318605-.63189.808633-.65326 1.078466-.0465 2.158086-.08759 3.237706-.10896.692908-.01338 1.074137.29047 1.073271.79533-.00202.91743.000289 1.83486.000289 2.75229.000288 1.9403 0 3.8806 0 5.82066.062624.02137.125249.0425.187584.06363.598827-.82444 1.236614-1.63221 1.788978-2.47685 1.285097-1.96589 2.554899-3.93906 3.776795-5.93125.473002-.77138 1.102996-1.15319 2.190985-1.07758.949177.06622 1.90932.02371 2.863115.05659.771694.02653 1.030848.33955.670398.88174-1.503561 2.2634-3.042042 4.51108-4.566669 6.76509-.556693.82303-1.133588 1.63832-1.646703 2.47897-.111973.18339-.065799.48396.033477.69083.509652 1.06584 1.03864 2.12627 1.601682 3.1745 1.407748 2.62103 2.831946 5.23595 4.263649 7.84853.223946.40882.537357.78453.780927 1.18724.46925.77607.116592 1.28163-.941385 1.33048-1.027674.04743-2.057944.05776-3.087061.09134-.639807.02113-1.035178-.23247-1.264319-.69999-.744277-1.5181-1.472105-3.04183-2.244664-4.55053-.724075-1.4136-1.491728-2.81264-2.253898-4.21309-.129866-.23928-.32784-.45414-.548035-.75306zm80.153125-2.9946c.03839 0 .086 3.68992.12381 5.15987.02568 1.01019-.17835 2.05653.49205 2.99674.44587.62509.94427 1.34504 1.87671 1.39083 2.24985.11083 3.74707-.40835 3.84663-2.57971.06897-1.50823-.00029-3.02257-.05541-4.53291-.10274-2.81593-.20548-5.63233-.3769-8.44568-.09812-1.61132-2.50815-2.54918-4.17967-1.68153-1.17947.61217-1.73818 1.48452-1.73097 2.6208.01241 1.94006.00375 3.13152.00375 5.07159zm-5.01485.30737c0-1.65617-.00693-3.31233.00231-4.9685.00866-1.57586.50936-3.03689 1.67527-4.30913 1.88652-2.05794 4.59928-2.3935 7.48491-2.2822 1.87065.07209 3.48676.67041 4.89191 1.68623 1.17197.84745 1.89085 1.92268 1.96415 3.14585.2049 3.42716.27243 6.85995.37257 10.29087.02829.95993-.10764 1.92715-.01385 2.88098.22712 2.30473-1.21843 3.89491-3.26079 5.22656-3.25502 2.12205-7.34004 1.37415-9.7844.19654-1.50934-.72699-2.51912-1.98819-2.80598-3.43138-.2909-1.46526-.3668-2.96363-.44529-4.45073-.06984-1.32602-.05888-3.98509-.08081-3.98509zm-32.62066-7.73106c-.03608 2.03869-.08052 3.97617-.08225 5.91388 0 .13009.31659.36538.49926.3743 1.55349.07584 3.10986.13948 4.66537.143.61412.00165.89521.15357.91224.64599.0277.7763.08456 1.55237.09581 2.32868.00981.69952-.37286.99445-1.25451.99093-1.30732-.00517-2.61463-.02466-3.92166-.03663-.29668-.00282-.59392-.00047-.98352-.00047v6.26821c.45655 0 .82681-.00023 1.19679.00024 2.53902.00235 5.07834.0155 7.61736.00117.70128-.00399 1.01931.20899 1.00315.79204-.0202.73592.01991 1.47254.01298 2.20893-.00635.69224-.18643.81458-1.01353.8228-4.2218.04133-8.44303.09369-12.66483.13455-1.21122.01174-1.40746-.14559-1.4115-1.12924-.02309-5.88875-.03983-11.77726-.05743-17.66602-.00462-1.57421-.00952-3.14843-.00433-4.72264.00346-.94961.10736-1.08298 1.29578-1.07729 2.81405.0145 5.62753.0927 8.44158.12956 1.45681.01902 2.9142.01057 4.37158.00423.87126-.00352 1.12782.17917 1.13763.88315.01039.77701.01587 1.55425-.00087 2.33103-.01241.56967-.37459.86366-1.09722.84135-2.0337-.06293-4.06769-.12821-6.10197-.17846-.82509-.02019-1.6519-.00329-2.65591-.00329zm74.47463 10.44651v6.36943c1.69403 0 3.31851-.004 4.9427.00117 1.30559.00423 2.61147.02747 3.91705.02653.68252-.00047 1.0196.20148.96534.80731-.05858.65115-.00086 1.30887-.04242 1.9619-.04473.70609-.37373.96181-1.22161.96228-3.82124.00282-7.64218-.00188-11.46371-.01268-.44703-.00141-.89983-.03217-1.33993-.09487-.66347-.09486-.96447-.43324-.95738-.99304.02494-1.88136.03244-3.76295.03533-5.64431.00808-4.92905.01154-9.85787.01299-14.78669.00028-.67416-.01472-1.34808-.03261-2.02201-.0127-.49218.20836-.76339.87702-.76059 4.27144.01927 8.54317.01176 12.81461.04229 1.20054.00868 1.28683.10966 1.29924 1.06442.00779.59174-.06551 1.18395-.07561 1.77616-.01068.6326-.39191.92636-1.15985.94279-1.35666.02959-2.71218.09276-4.06856.11084-1.49952.01972-2.99962.00446-4.64776.00446.11515 2.14341.22308 4.15298.33534 6.25319 1.52117 0 2.94335-.00658 4.36552.00188 1.3255.00774 1.4496.11553 1.46258 1.20015.0052.44991.00982.90005.00029 1.34996-.01904.90616-.35381 1.19264-1.50009 1.24524-1.30357.05988-2.60945.09721-3.91388.14653-.17085.00634-.34083.0263-.6046.04766zm-205.559916-10.62631c0 2.03446.001154 3.9501-.001155 5.86574-.000577.3945.196819.59339.716572.58047 1.30501-.03217 2.610309-.04579 3.915896-.06199 1.235171-.0155 1.708461.32522 1.739917 1.33376.019913.63002-.041845 1.26379-.107644 1.89287-.055121.52951-.502149.71642-1.101553.71948-1.507024.00728-3.014048.01315-4.520784.01925-.19451.00094-.389021.00024-.605753.00024v6.43963c2.657061.04438 5.204456.08759 7.752141.12985.47733.00799.979767-.05847 1.422755.04462.319182.07444.750338.34588.799975.57694.150645.69788.184987 1.41924.179216 2.13097-.006061.72747-.318028.93223-1.193037.9327-4.068849.00258-8.137121.00634-12.205971.00862-.225967 0-.453954.00241-.677324-.02107-.972841-.10261-1.274708-.34447-1.287694-1.15413-.019336-1.20555.017892-2.4118.028282-3.61783.036939-4.24855.076476-8.4971.107067-12.74565.014141-1.9619.006349-3.92357.015584-5.88547.002597-.53726.338806-.86133 1.01007-.86133 2.633973-.00045 5.267946.0073 7.901919.03078 1.580904.01409 3.162095.09041 4.74271.08219.648176-.00352 1.037486.15686 1.091741.68074.0759.72817.1619 1.46174.126692 2.1892-.027128.55652-.525814.77184-1.466044.76198-2.085073-.02231-4.169856-.04978-6.25464-.07162-.649042-.00657-1.298084-.00094-2.128938-.00094zm239.611996 5.87147c.64096-1.66509 1.23257-3.17426 1.80109-4.68907.50562-1.34761.97891-2.70322 1.47932-4.05224.20115-.54266.70186-.79603 1.37226-.77513 1.15147.03569 2.30526.07725 3.45068.17541.68829.05917.64558.50368.47531.89535-.58699 1.34809-1.17918 2.695-1.80976 4.02994-.99102 2.09786-2.01609 4.18515-3.02328 6.27808-.86058 1.78884-1.29404 3.623-1.13936 5.564.17431 2.18075.1974 4.36901.31313 6.55328.02828.53304-.17864.72653-.86058.70939-1.12464-.02795-2.25217.03991-3.37883.0442-.9411.00346-1.21295-.15692-1.22738-.9081-.0404-2.06334-.01818-4.12762-.01241-6.19143.0026-.94068.14805-1.89474-.00173-2.81781-.12871-.79392-.56045-1.55942-.90069-2.32539-1.24528-2.8049-2.50267-5.60627-3.76728-8.40553-.36333-.80448-.75495-1.60075-1.15378-2.3942-.36882-.73451-.20664-1.0076.74629-1.00689 1.2522.00094 2.5044.07138 3.7566.112.53822.01738.79824.26887.91483.67722.35064 1.23091.66463 2.47098 1.09203 3.68452.55179 1.56764 1.1991 3.11274 1.87354 4.8424zm-52.74994-5.76012c-1.46518 0-2.8129.00047-4.16091-.00023-1.10617-.00047-1.43517-.25947-1.40573-1.17597.0176-.55111.08427-1.1027.16594-1.65029.11919-.80026.37603-.97802 1.37196-.96299 2.03573.03123 4.07116.11365 6.10602.10191 2.71391-.01573 5.42754-.08806 8.14029-.16155 1.3561-.03687 1.65796.18527 1.61727 1.28539-.01645.44826.02771.8977.02916 1.34668.0023.79744-.28225 1.09659-1.25452 1.14849-1.3281.07115-2.66139.07514-3.99208.11201-.37228.01009-.7437.03475-1.21353.05729 0 1.05973-.01414 2.0725.00606 3.0848.00895.44826.1342.89606.12583 1.34315-.03463 1.81772-.14314 3.63545-.1443 5.45293-.00173 3.18976.05224 6.37952.0912 9.56905.00865.70938-.086.82186-.95842.85121-.95379.03194-1.90874.0479-2.86282.0479-.95582 0-1.18323-.10308-1.26894-.89277-.11197-1.03508-.07243-2.08119-.09408-3.1226-.10014-4.78394-.20057-9.56811-.29638-14.35228-.01328-.65256-.00202-1.30535-.00202-2.08213zm35.67964 16.83874c1.30472 0 2.57885-.00282 3.8527.0007 1.50702.00423 3.01462-.0061 4.52078.02748 1.12291.02512 1.32867.24162 1.33964 1.15553.00635.50932.08456 1.01864.08175 1.52772-.00441.83783-.34061 1.10482-1.36713 1.0905-1.98349-.02771-3.9664-.08548-5.94989-.10403-1.97974-.01855-3.96063-.02184-5.94037.00165-1.46633.01737-1.74309-.1787-1.75117-1.38731-.03867-5.66121-.086-11.32219-.11111-16.9834-.0075-1.65499.04531-3.31046.07706-4.96545.01356-.69435.1391-.76245.96822-.75071 1.05423.01456 2.10932-.0209 3.16412-.01714.89982.00329 1.03835.11741 1.03056.87211-.03319 3.22944-.10938 6.45865-.1088 9.68786.00057 3.18812.07445 6.37623.11861 9.56435.00058.05847.0303.11694.07503.28014z" fill="#fff" transform="translate(-853 -1193)"/></svg>