<svg height="25" viewBox="0 0 254 25" width="254" xmlns="http://www.w3.org/2000/svg"><path d="m1049.60197 1259.26542c0-1.60704.50586-2.82422 2.06008-2.89901h.18286c.29766 0 .45794-.16028.45794-.45794v-.91952c0-.29766-.16028-.45793-.45794-.45793h-9.38698c-.29765 0-.45793.16027-.45793.45793v.91952c0 .29766.16028.45794.45793.45794h.20546c1.55422.07479 2.06008 1.29197 2.06008 2.89901v13.42777c0 1.60703-.50586 2.82421-2.06008 2.89901h-.20546c-.29765 0-.45793.16027-.45793.45793v.91952c0 .29766.16028.45794.45793.45794h9.38698c.29766 0 .45794-.16028.45794-.45794v-.91952c0-.29766-.16028-.45793-.45794-.45793h-.18286c-1.55422-.0748-2.06008-1.29198-2.06008-2.89901zm23.70069 16.33044c-1.49255 0-2.24203-1.24374-2.24447-2.90267v-5.03664c-.00702-2.91946-.82519-5.89358-5.18959-5.89358-2.79704 0-4.43521 2.14007-5.27994 3.50013l.53974-4.00751c.00611-.04549-.00274-.04946-.04182-.04946l-.07174.00031c-.04732 0-.08884.03846-.13616.07265-.82031.59073-3.12737 1.77525-6.0389 2.23227-.29826.04671-.44114.14928-.44114.40267v1.03493c-.00915.20942.05709.36115.35841.39412 1.68488.18409 1.80486 1.87691 1.80486 3.51295v3.83716c0 1.65923-.72231 2.90267-2.21486 2.90267h-.07449c-.29766 0-.45793.16028-.45793.45793v.91586c0 .29766.16027.45794.45793.45794h8.87685c.29765 0 .45793-.16028.45793-.45794v-.91586c0-.2946-.15722-.45457-.44908-.45793h-.06106c-1.49255 0-2.24447-1.24374-2.24447-2.90267v-5.6292c.52662-1.28771 2.1996-2.60136 3.71321-2.60136 2.34278 0 2.20143 1.97155 2.20143 3.63415v4.59641c.02961 1.65893-.44816 2.90267-1.60429 2.90267-.31108 0-.47136.16028-.47136.45793v.91586c0 .29766.16028.45794.45793.45794h8.28337c.29765 0 .45793-.16028.45793-.45794v-.91586c0-.29765-.16028-.45793-.45793-.45793zm12.52473-1.14849c-.098-.156-.21981-.23477-.3581-.23477-.08548 0-.17707.02992-.27323.09037l-.03511.02198c-.62645.3929-1.47515.86793-2.17304.86793-.71132 0-1.26542-.49395-1.26694-2.07229v-8.72878h4.0762c.29765 0 .45793-.16028.45793-.45794v-1.31273c0-.29766-.16028-.45793-.45793-.45793h-4.08567v-5.13708c-.00458-.04579-.03785-.04976-.07693-.04947h-.04121c-.04732 0-.0919.03482-.13616.07267-1.24985 1.0621-2.86604 2.03261-3.74924 2.51466-.21431.11723-.27781.31292-.27781.55715v2.04176h-2.21486c-.29766 0-.45793.16028-.45793.45793v.91586c0 .29766.16027.45794.45793.45794 2.21303 0 2.21486 1.83233 2.21486 3.46837v5.65728c0 3.60209 1.6513 4.69471 3.5395 4.69471 1.51881 0 3.19087-.70704 4.28014-1.38356l.92013-.5773c.156-.098.23477-.21981.23477-.3581 0-.08548-.02992-.17707-.09037-.26865zm15.10441-6.35029-8.86189 3.87288c.69667 1.68855 2.2115 3.28642 4.58756 3.28642 1.29014 0 2.81536-.7104 3.88295-2.25577.06655-.09647.18958-.13341.26255-.13341.185 0 .23782.02534 1.21168.59592.09434.05526.13006.13799.13006.23385 0 .16516-.10472.36909-.19356.53517-1.14116 2.13121-3.02906 3.56179-6.12071 3.56179-5.06472 0-8.18995-3.71993-8.18995-8.13927 0-5.66278 3.66498-7.83796 7.26127-7.83796 4.03804 0 6.28099 3.59416 6.28099 5.89663 0 .1731-.05343.29735-.25095.38375zm-9.22915 1.96483 4.90628-2.47283c0-1.9401-1.04897-3.3545-2.45238-3.3545-1.67847 0-2.73904 1.51545-2.73904 3.49799 0 .60111.03877 1.60825.28514 2.32934zm18.516-8.80632c.0061-.04549-.00275-.04946-.04183-.04946l-.07174.00031c-.04701 0-.08884.03846-.13616.07265-.82031.59073-3.12736 1.77525-6.03889 2.23227-.29827.04671-.44114.14928-.44114.40267v1.03493c-.00916.20942.05709.36115.35841.39412 1.68488.18409 1.80486 1.87691 1.80486 3.51295v3.83716c0 1.65923-.72231 2.90267-2.21487 2.90267h-.07449c-.29765 0-.45793.16028-.45793.45793v.91586c0 .29766.16028.45794.45793.45794h8.87685c.29766 0 .45793-.16028.45793-.45794v-.91586c0-.29765-.16027-.45793-.45793-.45793h-.0522c-1.49255 0-2.24448-1.24374-2.24448-2.90267v-5.6292c.45519-1.11278 1.66596-2.63891 3.06326-2.63891.83893 0 1.44065.47381 1.44065 1.57956 0 .41855-.03663.94487-.27812 1.53224-.03877.09464-.05861.18531-.05861.26499 0 .1731.0922.29521.27995.29521.0754 0 .16607-.01954.27231-.0635l2.85414-1.1781c.74032-.3056.79985-1.01783.79985-1.93919 0-2.08237-1.54262-3.14507-3.44883-3.14507-2.16785 0-4.2609 1.23916-5.37184 3.58346zm11.74044.90762-.00397-.25431c0-3.62132 1.54964-8.9089 6.90164-8.9089 3.23971 0 4.80553 1.40158 4.80553 3.23971 0 .48236-.10777.99493-.32147 1.52003-.13341.32757-.31139.47961-.76566.58188l-3.20185.72048-.07511.00885c-.25308 0-.28239-.34467-.13768-.62462.40206-.77787.56692-1.45347.56692-2.00971 0-1.12956-.68079-1.76609-1.4376-1.76609-.44114 0-.90823.21645-1.28129.67744-.73575.90945-.96196 2.4829-.97509 4.81469v2.00055h4.09146c.29766 0 .45794.16027.45794.45793v1.31273c0 .29766-.16028.45794-.45794.45794h-4.0762v8.30138c0 1.65893.75193 2.90267 2.24448 2.90267.29765 0 .45793.16028.45793.45793v.91586c0 .29766-.16028.45794-.45793.45794h-8.59751c-.29766 0-.45793-.16028-.45793-.45794v-.91586c0-.29765.16027-.45793.45793-.45793 1.49255 0 2.24447-1.24374 2.21486-2.90267v-5.22989c0-1.63603-.00183-3.46837-2.21486-3.46837-.29766 0-.45793-.16027-.45793-.45793v-.91586c0-.29766.16027-.45793.45793-.45793zm25.20943-.34559v9.96123c.03785 1.45378.29643 2.81811 1.79906 2.98235.30132.03298.36756.1847.35841.39413v1.03493c0 .25644-.14257.40267-.45091.40267-2.9961 0-4.24472.56387-5.61302 1.17047-.05343.03053-.16913.06106-.25827.06106h-.07175c-.03907 0-.04762-.03053-.04182-.09159l.35383-2.72103c-.33185.81695-1.5243 2.81262-4.66358 2.81262-2.75308 0-6.76486-2.14831-6.76486-8.0541 0-5.65453 3.43814-7.9909 7.12846-7.9909 1.99078 0 3.6778.61607 4.95604 1.7725 1.69954-.70735 2.39742-1.26359 3.01868-1.71083.04732-.03389.08884-.07236.13616-.07266l.07174-.00031c.03908 0 .04183.00367.04183.04946zm-4.26365 11.30175v-6.13201c-.23629-1.22939-.99981-3.17896-3.40701-3.17896-2.95335 0-3.75503 2.4481-3.75503 4.97466 0 3.91226 1.71968 6.34724 4.2206 6.34724 2.26431 0 2.94144-2.01093 2.94144-2.01093zm20.508-.36543c-.09739-.06839-.18958-.10197-.27598-.10197-.13463 0-.25522.08151-.35963.23996-.90609 1.35364-2.22585 2.0558-3.39693 2.17792-.19936.02106-.39108.03114-.57577.03114-3.07822 0-4.15985-2.83032-4.15985-5.85847 0-.38161.01709-.76658.04976-1.14941.17859-2.09732 1.11033-3.85914 3.04891-3.85914 1.79448 0 2.61601 1.0276 2.4942 2.76743l-.03664.31781c-.02106.13219.06869.20363.24057.20363.07327 0 .16149-.01283.26224-.03969l3.50409-.93174c.23385-.06228.36177-.2018.36177-.40939l-.01527-.13097c-.42404-1.92148-1.82226-3.92081-5.5428-4.18091l-.56387-.01954c-3.45432 0-7.28782 2.18952-7.70606 7.25821-.35872 4.34821 2.67676 8.64697 7.25973 8.64697.26866 0 .54311-.01466.82214-.04519 2.89688-.29521 4.61534-1.71174 5.56723-3.73305.11845-.254.05434-.45885-.17341-.61882zm16.28313-4.65686-8.86189 3.87288c.69666 1.68855 2.2115 3.28642 4.58755 3.28642 1.29015 0 2.81537-.7104 3.88296-2.25577.06655-.09647.18958-.13341.26254-.13341.18501 0 .23782.02534 1.21169.59592.09433.05526.13005.13799.13005.23385 0 .16516-.10471.36909-.19355.53517-1.14117 2.13121-3.02906 3.56179-6.12071 3.56179-5.06472 0-8.18995-3.71993-8.18995-8.13927 0-5.66278 3.66498-7.83796 7.26126-7.83796 4.03804 0 6.28099 3.59416 6.28099 5.89663 0 .1731-.05342.29735-.25094.38375zm-9.22915 1.96483 4.90627-2.47283c0-1.9401-1.04897-3.3545-2.45237-3.3545-1.67847 0-2.73904 1.51545-2.73904 3.49799 0 .60111.03877 1.60825.28514 2.32934zm30.54066.26621c-.09494-.05495-.1847-.08242-.26804-.08242-.14929 0-.2772.08822-.37642.26468l-.0983.16882c-2.66639 4.37996-5.10594 4.58848-7.27226 4.58848h-1.17841c-1.58963-.05343-2.10526-1.27824-2.10526-2.90085v-15.9873h1.8418c.29765 0 .85297-.16027.85297-.45793v-.91586c0-.29766-.25858-.46526-.55623-.46526h-9.26243c-.29765 0-.45793.1676-.45793.46526v.91586c0 .29766.16028.45793.45793.45793h.03053c1.67572 0 2.21486 1.24344 2.21486 2.90268v13.42044c0 1.65924-.53914 2.90268-2.21486 2.90268h-.03053c-.29765 0-.45793.16027-.45793.45793v.91586c0 .29765.16028.45793.45793.45793h15.30834c.22714 0 .40756 0 .58493.15264l.17005.15265c.08945.0809.18561.11814.2775.11814.15051 0 .28942-.10013.36696-.27079l2.86054-6.04377c.05618-.09556.08365-.18592.08365-.26957 0-.14868-.0867-.27659-.25644-.3749zm7.33423-7.88191c1.00379-.44694 2.05428-.65851 3.09226-.65851 3.03364 0 5.96074 1.807 7.30645 4.82904.48601 1.09171.7159 2.23043.7159 3.34657 0 3.03028-1.6971 5.89082-4.57443 7.17212-1.0044.44816-2.0552.66033-3.09379.66033-3.03303 0-5.95952-1.80944-7.30492-4.83117-.47808-1.08927-.70491-2.22555-.70491-3.33924 0-3.03303 1.68366-5.89724 4.56344-7.17914zm.91525 2.05611c-1.3222.5886-1.84088 1.80272-1.84088 3.21559 0 1.13262.33368 2.39315.85358 3.56118.96441 2.16602 2.59525 4.07224 4.47491 4.07224.39748 0 .80626-.08549 1.22206-.27141 1.3222-.58859 1.84089-1.80272 1.84089-3.21559 0-1.13262-.33368-2.39315-.85359-3.56118-.96471-2.16724-2.59647-4.0704-4.47704-4.0704-.39687 0-.80474.08487-1.21993.26957zm23.19026-2.35041c-.29766 0-.45793.16028-.45793.45793v.91587c0 .29765.16027.45793.45793.45793h.60172c.48968 0 .67438.24545.67438.64507 0 .54402-.34284 1.37349-.72689 2.2576l-2.58518 5.94945-2.81047-5.94945c-.35108-.74276-.61913-1.46202-.61913-1.99841 0-.54677.27843-.90426 1.03188-.90426h.06105c.29186-.00336.44908-.16333.44908-.45794v-.91586c0-.29765-.16027-.45793-.45793-.45793h-7.04512c-.29766 0-.45793.16028-.45793.45793v.91586c0 .29766.16027.45794.45793.45794h.07449c.76657 0 1.07308.41702 1.76578 1.92483l5.13341 11.17628c.10807.23568.27507.34284.53456.34284h1.60917c.25919 0 .42618-.10716.53456-.34254l5.14898-11.19337c.69941-1.52094 1.13781-1.90804 1.78685-1.90804h.43564c.29766 0 .45794-.16028.45794-.45794v-.91586c0-.29765-.16028-.45793-.45794-.45793zm20.45671 5.94517-8.86189 3.87288c.69667 1.68855 2.2115 3.28642 4.58756 3.28642 1.29014 0 2.81536-.7104 3.88295-2.25577.06655-.09647.18958-.13341.26255-.13341.185 0 .23782.02534 1.21168.59592.09434.05526.13005.13799.13005.23385 0 .16516-.10471.36909-.19355.53517-1.14116 2.13121-3.02906 3.56179-6.12071 3.56179-5.06472 0-8.18995-3.71993-8.18995-8.13927 0-5.66278 3.66498-7.83796 7.26127-7.83796 4.03804 0 6.28098 3.59416 6.28098 5.89663 0 .1731-.05342.29735-.25094.38375zm-9.22915 1.96483 4.90628-2.47283c0-1.9401-1.04897-3.3545-2.45238-3.3545-1.67847 0-2.73904 1.51545-2.73904 3.49799 0 .60111.03877 1.60825.28514 2.32934zm18.516-8.80632c.0061-.04549-.00275-.04946-.04183-.04946l-.07174.00031c-.04702 0-.08884.03846-.13616.07265-.82031.59073-3.12736 1.77525-6.03889 2.23227-.29827.04671-.44114.14928-.44114.40267v1.03493c-.00916.20942.05709.36115.3584.39412 1.68489.18409 1.80486 1.87691 1.80486 3.51295v3.83716c0 1.65923-.72231 2.90267-2.21486 2.90267h-.07449c-.29765 0-.45793.16028-.45793.45793v.91586c0 .29766.16028.45794.45793.45794h8.87685c.29766 0 .45793-.16028.45793-.45794v-.91586c0-.29765-.16027-.45793-.45793-.45793h-.0522c-1.49256 0-2.24448-1.24374-2.24448-2.90267v-5.6292c.45519-1.11278 1.66596-2.63891 3.06326-2.63891.83893 0 1.44065.47381 1.44065 1.57956 0 .41855-.03664.94487-.27812 1.53224-.03877.09464-.05861.18531-.05861.26499 0 .1731.09219.29521.27995.29521.0754 0 .16607-.01954.27231-.0635l2.85414-1.1781c.74032-.3056.79985-1.01783.79985-1.93919 0-2.08237-1.54262-3.14507-3.44883-3.14507-2.16785 0-4.2609 1.23916-5.37184 3.58346zm22.87672 5.27292c.17829-.09402.24454-.19446.24454-.32207 0-.0864-.03023-.18531-.07694-.30346l-1.52857-3.87929c-.09678-.24515-.26346-.35871-.52693-.35934h-.79527c-.26041-.00181-.38558.11419-.38558.31874 0 .06044.01099.12883.03267.20423.09524.33033.12333.64111-.04244.64111-.03572 0-.08029-.01435-.13555-.04641-.53059-.30834-2.14464-.99157-4.04384-.99157-3.19788 0-5.23629 1.74747-5.23629 4.1745 0 2.00299.84534 3.80083 5.82855 5.28514 2.06649.61577 4.62633 1.17811 4.62633 2.74637 0 1.1665-1.05599 1.74105-2.93748 1.74105-2.49298 0-4.95054-1.11246-6.91385-4.11253-.09586-.16455-.2195-.24819-.36359-.24819-.08121 0-.16913.02686-.26194.08059l-.94456.54738c-.16425.09495-.24423.21645-.24423.36329 0 .08304.02564.17463.07663.26621l2.63005 4.91941c.11998.2137.28636.30529.54097.30529h1.09415c.24301.02167.34558-.06534.34558-.23904 0-.06991-.01648-.15326-.04701-.24942-.08701-.27659-.03541-.4561.15661-.4561.0693 0 .15692.0235.26316.07418 1.05691.51533 2.2924.79009 3.54286.79009 3.98217 0 6.43058-2.10008 6.43058-4.94994 0-3.70771-4.06216-4.61014-6.89553-5.33551-1.67114-.42801-3.4006-.96043-3.4006-2.29698 0-1.15674 1.05233-1.55727 2.13579-1.55727 1.46935 0 3.62468.82641 5.46862 3.12584.12273.15295.24118.23721.38314.23721.07326 0 .15264-.02229.24239-.06961zm5.1154 7.33087c-.38588.38589-.57883.78673-.57883 1.18727 0 .40084.19295.80168.57883 1.18726l1.19367 1.19368c.38589.38161.78673.57241 1.18727.57241.40084 0 .80138-.1908 1.18726-.57241l1.19368-1.19368c.38588-.38558.57852-.78642.57852-1.18726 0-.40054-.19264-.80138-.57852-1.18727l-1.19368-1.19336c-.3871-.38711-.78886-.58005-1.19062-.58005-.39962 0-.79924.1908-1.18391.5715z" fill="#fff" transform="translate(-1042 -1253)"/></svg>