<svg height="30" viewBox="0 0 92 30" width="92" xmlns="http://www.w3.org/2000/svg"><path d="m1179.95925 1137.95834-.93462 4.92574h-1.24162c-.87212 0-1.27423.4347-1.27423 1.27151v1.08676h5.787v-4.8225l5.97718.0163v4.8062h4.55352l-.74171 4.95834h-3.5048v5.56149c0 1.07318.45915 1.54048 1.56493 1.51875h2.01051v5.70549h-2.91524c-4.78989 0-6.93352-2.2659-6.93352-6.52056v-6.26517h-5.79787v12.79931h-6.26516v-12.79931h-3.85257v12.78573h-6.26517v-17.75766h10.12589v-2.0105c0-3.28473 2.11103-5.25992 5.83046-5.25992zm-23.68593.03532v24.99547h-6.27332v-24.99547zm39.60898 11.38843c2.59935-4.55166 8.37819-6.16284 12.95758-3.61266l-2.53215 4.43398h-5.10777l1.05144 7.10197-2.89621 5.07245c-4.52339-2.64823-6.07224-8.44409-3.47289-12.99574zm16.91611-8.47048c2.8858 1.66072 4.70015 4.70282 4.78989 8.03115.04834 2.6575-1.00398 5.21677-2.9077 7.07161s-4.48949 2.84025-7.14483 2.72282c-1.48633-.07216-2.9347-.49382-4.22749-1.23076-.01036-.01056-.01036-.02747 0-.03804l2.52943-4.42854h5.12407l-1.06502-7.10198 2.86361-5.02626c.01056-.01036.02747-.01036.03804 0zm17.16265-7.91161-.93462 4.91759h-1.24162c-.87212 0-1.27422.4347-1.27422 1.27151v1.07317h5.81144v-2.0105c0-3.28474 2.1056-5.25177 5.82504-5.25177h3.88788l-.93462 4.91759h-1.24434c-.8694 0-1.2715.4347-1.2715 1.27151l.00271 1.07861h3.45046l-.93461 4.95834h-2.51585v12.79387h-6.26517v-12.79387h-5.81416v12.79387h-6.26517v-19.76c0-3.28473 2.11103-5.25992 5.83047-5.25992zm-63.86615 4.98823v4.9203h-5.96903v-4.9203z" fill="#fff" transform="translate(-1150 -1133)"/></svg>