<svg height="50" viewBox="0 0 62 50" width="62" xmlns="http://www.w3.org/2000/svg"><path d="m1177.94269 1196.7487c-.0697-.1866-.10156-.38386-.10056-.58823.00099-.24524.02887-.47449.08662-.68952.05675-.21148.14735-.40252.24891-.51892.10653-.11996.18021-.14928.26484-.15905.0468-.00534.10753-.00534.18419.00533l.01494.00266.10852.02666c.00498.00533-.02787.00089-.03584-.00444-.00996-.00445.00597.00799.00896.00799.05277.02933.18121.15994.27978.35276.2061.39186.32657.93832.38033 1.48301.04182.41763.0468.84769.02489 1.28042-.23497-.0622-.46297-.15195-.66907-.27634-.3654-.22481-.65613-.54825-.79751-.92233m-10.37768 16.92215c-.32702 3.55221-.89054 4.89036-2.37234 4.79843-1.49321-.09279-1.5609-2.4056-1.56009-2.68481.00245-.50649.11499-1.08022.20062-1.60458.26505-1.61736 1.46304-3.79823 4.00991-6.75884-.00979.85975-.13538 4.70054-.27728 6.24894m13.29534 2.86412c1.31435-.42938 2.32918-.05615 2.33711 1.4955l.00881 2.03373c.00352.77582-.34885 1.46093-1.10997 1.98707.76464.00864 1.15754.50109 1.16106 1.20694l.01146 2.34475c.00352.51664.12861.83716.36118 1.05574l.00176.51578-1.15314.37754c-.72765.23931-1.01483-.35681-1.02012-1.25272l-.01233-2.46484c-.00176-.4648-.25195-.76373-.76641-.59526l-.92321.30238.02378 4.84329-1.88167.61599-.05637-11.4784zm6.43029-2.09192c1.57925-.55216 2.62173.20994 2.62827 1.77596l.02864 6.36651c.00812 1.58394-1.02374 3.05182-2.60462 3.60313-1.58007.55131-2.62174-.19287-2.62909-1.77596l-.02945-6.36736c-.00731-1.56688 1.02455-3.05097 2.60543-3.60228zm1.04338 2.10998c-.00395-.56736-.38411-.84438-1.04076-.64638-.65665.19711-1.03287.69966-1.02992 1.26702l.03655 6.90783c.00296.56648.38412.84261 1.03978.6455.65665-.19623 1.03188-.69966 1.02893-1.26703zm8.42396-2.91885.00832 1.70617-1.57651.56368-.00832-1.7409c-.00167-.56813-.30548-.86912-.92643-.64739-.62095.22174-.9206.73822-.9181 1.28943l.02996 6.92711c.00333.55032.30715.85219.92726.63046.62012-.22262.91977-.73821.91727-1.30634l-.00749-1.75872 1.57651-.56278.0025-.00179.0067 1.7231c.00745 1.58061-.87653 3.03478-2.52212 3.62161-1.62728.58149-2.7052-.2431-2.71186-1.85934l-.02917-6.60742c-.00746-1.61623 1.06047-3.20664 2.68776-3.78813 1.64309-.58772 2.53706.23152 2.54372 1.81125zm-15.24515 5.3726c-.00342-.4429-.25718-.6226-.83072-.48902l-1.26088.295.02276 3.34599 1.16984-.27273c.59516-.13995.91493-.45324.91267-.95975zm22.51916-10.00592-1.86503 5.42232.00087.00085 1.99024 5.87304-1.92369.62539-1.32741-4.28571-.62868 1.83868.01576 3.07583-1.87029.60749-.05516-11.31751 1.87028-.60835.0254 5.32008 1.91494-5.95058zm17.52019-29.95662c.79879-.17169 1.10729.15862 1.00941 1.12776 0 0-.02003 6.99773-.02448 10.40745l-.00086 1.08978c0 2.63638-1.19119 4.93113-1.80557 5.84449-.61613.91336-1.3922 1.74132-2.26614 2.44987-.87656.7103-1.84489 1.30991-2.86042 1.82063-2.03803 1.00662-4.22901 1.73173-6.47155 2.28951-2.2373.5787-4.52878 1.01272-6.81414 1.40055-2.28624.38783-4.57073.72773-6.80365 1.08593-2.2338.36081-4.42128.72773-6.50214 1.19225-2.08086.46017-4.06122.99355-5.86329 1.64981-1.80207.65365-3.42411 1.43454-4.76125 2.33832-1.33975.9029-2.37713 1.93131-3.10774 2.95885-.73499 1.02579-1.17633 2.03763-1.44638 2.89958-.27704.86281-.513 1.77966-.47979 2.6695.03845 1.08592-.14857 1.4816-1.43852 1.33431-.69828-.07931-1.21478-.68154-1.15011-1.37876.00175-.01046.0035-.02528.00437-.03486 0 0 .00962-.0767.0271-.22573.0166-.15077.04282-.37214.09089-.66149.09788-.57608.25082-1.42931.61875-2.47602.36094-1.04584.94648-2.28864 1.8851-3.52098.46493-.61618 1.02164-1.21928 1.6535-1.7971.63361-.57521 1.345-1.11817 2.12018-1.61495 1.54951-1.00139 3.34546-1.81888 5.27862-2.48125 1.93317-.6641 4.00529-1.18092 6.15257-1.61494 2.14815-.42967 4.36884-.80007 6.62012-1.13735 2.25041-.34164 4.53228-.65801 6.79579-1.02056 2.25914-.36517 4.5113-.76782 6.67256-1.30991 1.07845-.27976 2.13068-.59613 3.1462-.95956 1.01639-.3582 1.98647-.78525 2.88489-1.27853.89841-.48893 1.72866-1.04323 2.44267-1.67247.71576-.62315 3.04045-2.70262 3.12085-6.75872.00525-.26408.00962-.99529.01399-1.96792-.13372.34338-.28666.692-.46669 1.04497-1.02688 2.27469-3.4582 2.54835-4.63015 1.00836-.6843 1.20881-1.64739 2.26336-2.99326 2.69651-1.56436.50288-2.48025-.46714-2.48025-1.96878v-5.97522c0-.91336-.05943-1.65939-.6205-1.47899-.85472.27541-2.68651 3.39723-2.89188 5.78958l-.00047 4.5127c-.00635.51206-.07852 1.07599-.82716 1.31697-.51213.16472-1.20342.23183-1.37559-.46888-.60651.76259-1.36684 1.37963-2.31857 1.68641-1.56436.50374-2.47938-.46627-2.47938-1.96792l-.00062-6.12577c-.00753-.84293-.09003-1.49964-.62075-1.32843-.85472.2754-2.68476 3.39723-2.89188 5.78958l.00011 4.4039c.00004.53854-.02469 1.16671-.82599 1.4249-.48067.15426-1.11603.22311-1.33801-.3399-.5768.67718-1.28732 1.22101-2.16126 1.50252-1.56436.50374-2.47938-.46714-2.47938-1.96792l-.00062-6.12563c-.00744-.8422-.0891-1.49895-.619-1.32857-.85647.2754-2.68651 3.39723-2.89363 5.78958l-.00023 4.4998c-.00485.51545-.06994 1.08687-.82565 1.32987-.59079.19086-1.41754.25013-1.41754-.83929v-4.75332c-.13458.17169-.2849.34251-.4527.50635-.33821.3338-.75596.64494-1.25236.87154-.13459.06187-.27704.11504-.42474.16384-.11274 1.05107-.34957 2.08819-.74809 3.09045-.2482.61356-.56457 1.21492-.99717 1.77008-.42911.54907-.99892 1.06153-1.71293 1.36743-.71052.31114-1.52241.36082-2.20933.22486l-.03234-.00436-.01573-.00261-.04894-.01133-.04981-.01133c-.03758-.00959-.05506-.01133-.1276-.03312-.0603-.01743-.12497-.03748-.18003-.05752l-.14945-.05927c-.19838-.08541-.38104-.19348-.54709-.31462-.33209-.24664-.58292-.54035-.77693-.83406-.38454-.59176-.57768-1.18092-.70265-1.73783-.02447-.11853-.04632-.23444-.06642-.35035-.16081.22485-.32773.44709-.50165.658-.62312.75562-1.28644 1.4206-1.93403 2.07599-.01224 1.69774-.07429 3.55149-.13983 5.25533-.04895 1.23932-.11799 2.48212-.24296 3.73799-.06293.62751-.14158 1.25937-.25257 1.89907-.11361.6397-.2517 1.28725-.48329 1.9531-.11624.33293-.25432.67108-.44571 1.01098-.18878.33902-.43523.68241-.76033.98744-.32249.30591-.73499.55168-1.15186.69723-.41775.14728-1.2646.37737-2.44005.11591-.43173-.09674-.84161-.31114-1.19206-.57608-.70964-.53164-1.1405-1.26895-1.38957-1.98622-.24995-.72424-.3356-1.45284-.32948-2.15965.00524-.70769.11099-1.39533.27529-2.05595.3356-1.32211.91065-2.54574 1.63777-3.64735.18266-.27889.36706-.53948.57418-.81053.10837-.14031.18528-.23705.29802-.37824l.29714-.36343c.39939-.48108.80228-.9613 1.22265-1.42495.72624-.80791 1.48658-1.58793 2.26351-2.33919 0-.68415-.00175-1.36917-.00612-2.05507l-.00874-12.85856c-.14332.09586-.28578.19348-.42473.29632-.61788.45755-1.18245.98831-1.68934 1.56875-.25257.29196-.48853.59787-.71401.91249-.21674.31898-.42736.64407-.61263.98483-.18965.33903-.36181.68764-.51563 1.04584-.07603.17954-.56369 1.52954-.66944 2.17708-.05943.36953-.09788.74255-.10662 1.11644-.01835.74428.06991 1.49118.27442 2.18754.20188.69025.52786 1.34303.94823 1.79622.20799.22573.43697.39306.64934.48022.21586.09151.37754.09412.63798.06013.2613-.03224 1.08893-.53076 1.24799.83841.06554.5665-.24733 1.10249-.79791 1.23409-.62138.14729-1.31878.08541-1.89209-.15252-.57768-.23269-1.04262-.59525-1.41666-.98744-.3758-.3948-.66857-.82795-.90716-1.27505-.23684-.44535-.41949-.90726-.5602-1.37528-.28053-.93602-.39851-1.89819-.38104-2.85339.00874-.47672.05157-.95258.12673-1.42321.07603-.47149.1809-.92905.32423-1.39357.03758-.12638.39065-1.08767.47979-1.30033.17916-.42443.38104-.84103.6039-1.24716.22023-.40875.46931-.80094.72887-1.18615.26743-.38086.55058-.75039.85297-1.1051.61351-.70159 1.29606-1.34303 2.04852-1.90081.57506-.42618 1.75226-1.17134 2.5222-1.41711.61002-.19522 1.20779.07844 1.42016.64755.04545.12463.06817.25361.06904.37911v.03138l.00175 14.65392c.25345-.24665.4999-.49416.73499-.74342.73673-.78874 1.29256-1.64458 1.71817-2.64074.05506-.38434.12847-.74951.21499-1.09028.19751-.78525.47368-1.44849.75509-1.97838.27529-.53163.58292-.91772.80665-1.17134.11274-.12637.20887-.21788.27442-.27889.06817-.05926.10138-.09063.10138-.09063.31898-.28935.91152-.37128 1.09942.05229.15818.3582.21586.80878.02359 1.0162 0 0-.09788.11679-.22547.30852-.12847.19087-.29627.49678-.47368.9247-.17566.42879-.33822.98309-.46232 1.63935-.1206.65539-.19926 1.41711-.17129 2.22414.0201.40265.05244.8175.13808 1.21753.0839.39742.2115.78787.3924 1.07373.08827.14293.18703.25536.28403.33292.04807.03748.09701.06624.1477.09151l.03845.01831c.00874.00348.00962.00261.01399.0061-.00437.00043.00612.0037.0213.00773l.04949.01231.03758.00959.01398.00349c.38628.08105.7411.05839 1.08194-.07496.34084-.13508.67556-.40003.9727-.76346.29539-.36168.55233-.80965.76033-1.29684.29977-.70158.50864-1.47724.63973-2.27208-.4125-.08541-.81976-.24402-1.19293-.4837-.54971-.34861-1.02514-.88721-1.28033-1.54958-.13022-.32856-.20188-.68589-.21674-1.04235-.01486-.31636-.00087-.658.06205-1.004.06642-.34687.17392-.71379.41075-1.07721.11799-.18041.27005-.35995.46844-.51072.19576-.15078.43435-.26843.67993-.3277.63011-.12288 1.20079.06188 1.27683.09413.07691.03399.12497.06188.18877.09674.46057.28325.70527.66149.88618.99964.34695.692.47193 1.35698.55932 2.0176.04894.41136.06992.82098.07254 1.22886.58205-.30765 1.03038-.80443 1.35549-1.29946.3286-.50723.54796-1.0162.70003-1.45981v-10.237c0-.85323-.2954-.81662-.2954-1.02318 0-.20568.53136-.49503.94474-.6275.97357-.31375 1.59407.07582 1.59407.78176v9.65656c.79704-1.90516 1.86063-3.51314 3.30613-3.97853 1.97861-.63796 2.45054.82969 2.45054 2.18318v6.09462c0 .26407.04806 1.65678.81539 1.41013.65283-.21178 1.14661-.96478 1.50143-1.82934v-7.69387c0-.55866-.11798-.6981-.11798-.90291 0-.29371.35482-.61443.76732-.74777.97532-.31375 1.59495.07582 1.59495.78176v1.32473c.79704-1.90517 1.85888-3.51227 3.30613-3.97854 1.97861-.63709 2.45054.83057 2.45054 2.18405v6.09288c0 .26581.05156 1.65765.81976 1.41013.75508-.24228 1.31965-1.27156 1.69457-2.35226v-7.22499c0-.55865-.11885-.69809-.11885-.90378 0-.29283.35394-.61443.76732-.7469.97445-.31375 1.59495.07495 1.59495.78177v1.32472c.79703-1.90516 1.85888-3.51227 3.30613-3.97854 1.97686-.63796 2.44966.8297 2.44966 2.18406l.00043 6.13722c.00619.34865.08855 1.60069.81933 1.36579.81714-.26408 1.40443-1.4694 1.77673-2.64423-.00088-.01133-.00262-.02266-.0035-.03399-.00913-.09521-.06401-6.83997-.06948-7.51421l-.00043-.39406c-.00437-.31985-.30588-.5447.0568-.9796.2316-.27801.6677-.43663 1.06184-.47498.78481-.07582 1.19643.32159 1.13089 1.21666-.00088.0061-.04457 7.73222 0 7.9562.04457 1.40317 1.02251.90988 1.70506.10894.82763-.96914 1.44987-2.8316 1.86325-4.44045.00457-2.36603.00648-4.61042.0069-5.15023l.00009-.12253c.00962-.61879.63186-.9918 1.23838-1.12079zm-11.65966 27.85136.00699 1.63666-2.8152.9401.01572 3.20349 1.95308-.65117.00699 1.53192-1.95396.65204.0166 3.53345 2.81544-.93923.00937 1.68816-4.68181 1.56247-.05503-11.59543zm6.36341-2.10527.00741 1.66534-1.882.58437.04999 9.76824-1.97734.61363-.04999-9.76737-1.9218.59556-.00834-1.66448zm6.198.42539.00552 1.06456-1.78073.57275-.00644-1.06278c-.00276-.65724-.31933-.99964-.95064-.79509-.57333.18499-.9626.66524-.95892 1.26911.00552 1.15261.54572 1.54659 1.70066 2.34702 1.212.79953 2.1065 1.70045 2.11479 3.19101l.00096-.00267c.00824 1.8801-1.26634 3.32264-2.87773 3.8438-1.78073.57453-2.89794-.11384-2.90714-1.77871l-.00461-1.04678 1.79914-.58075.0046 1.01031c.00368.74528.35798 1.05745 1.04359.836.70493-.2259 1.03622-.74172 1.03346-1.39896-.0046-1.02899-.54664-1.61863-1.59023-2.32834-1.02518-.64745-2.21785-1.64886-2.22522-3.15632-.00736-1.5964.94972-3.20347 2.86021-3.8189 1.65097-.53273 2.73045.21967 2.73873 1.83474z" fill="#fff" fill-rule="evenodd" transform="translate(-1161 -1179)"/></svg>