<svg height="35" viewBox="0 0 173 35" width="173" xmlns="http://www.w3.org/2000/svg"><path d="m855.913653 1307.91774v26.66327l17.502333 2.50242h2.91657l17.499416-2.50242v-26.66327h2.91657v29.16569l-20.415986 2.91657h-2.91657l-20.415986-2.91657v-29.16569zm2.918319-2.91716s9.365105.00584 14.582848 3.01282v26.24912c-5.052101-2.91152-13.992418-3.00942-14.554965-3.0127l-.027883-.00011zm32.082264-.00058v26.24913s-9.359271.00583-14.582847 3.01281v-26.24912c4.89192-2.81607 13.41104-2.99998 14.473113-3.01198zm94.549647 11.66628c1.089842 0 2.100959.26035 3.033379.78105.932421.5207 1.713463 1.1201 2.34315 1.79823l-2.107018 2.4703c-.411718-.46016-.883976-.87187-1.416788-1.23515s-1.089835-.54492-1.671084-.54492c-.702343 0-1.259365.15742-1.671083.47226-.411719.31485-.617575.81132-.617575 1.48945 0 .31484.115037.5873.345115.81737.230078.23008.514644.44199.853706.63574s.708392.36933 1.108001.52676c.399609.15742.75683.32089 1.071673.49042.726562.33907 1.362294.67207 1.907215.99902s.999016.69023 1.362296 1.08984c.363281.39961.641792.8537.835542 1.36229.19375.5086.290623 1.11406.290623 1.8164 0 .92031-.151364 1.72557-.454098 2.4158-.302734.69024-.726556 1.27148-1.271477 1.74374-.544921.47227-1.186708.82949-1.925379 1.07168-.738671.24218-1.556041.36328-2.452133.36328-1.283593 0-2.433965-.26641-3.451151-.79922s-1.889047-1.28358-2.615609-2.25233l2.179674-2.4703c.484375.72657 1.101943 1.30175 1.852723 1.72558.750781.42383 1.453113.63574 2.107019.63574.774999 0 1.374403-.12109 1.798231-.36328.423827-.24219.635738-.77499.635738-1.59843 0-.33906-.115037-.63574-.345115-.89003-.230078-.2543-.514644-.49043-.853706-.7084-.339062-.21796-.720501-.42382-1.144329-.61757-.423827-.19375-.841594-.39961-1.253312-.61757-.726562-.33907-1.362294-.67812-1.907215-1.01719-.544922-.33906-.992961-.70839-1.344133-1.108-.351171-.39961-.617573-.85975-.799214-1.38046-.18164-.5207-.272459-1.14432-.272459-1.87088 0-.79922.14531-1.52577.435935-2.17968.290625-.6539.690228-1.20487 1.198821-1.65292.508593-.44804 1.120107-.79316 1.834559-1.03534.714452-.24219 1.507604-.36328 2.379478-.36328zm34.555807 0c1.25938 0 2.35526.21796 3.28768.6539s1.78612 1.19882 2.56112 2.28866l-2.43397 2.36131c-.43594-.55703-.94453-1.01718-1.52578-1.38046s-1.21092-.54492-1.88905-.54492c-.84765 0-1.5076.24824-1.97987.74472-.47226.49649-.70839 1.15644-.70839 1.97988v6.35738c0 .92031.24824 1.59842.74472 2.03436s1.20487.6539 2.12518.6539c.65391 0 1.26542-.12109 1.83456-.36328.56914-.24218 1.07167-.62968 1.50761-1.16249l2.25233 2.36132c-1.55 1.69531-3.46325 2.54295-5.73981 2.54295-1.96172 0-3.5238-.5207-4.6863-1.5621-1.1625-1.04141-1.74374-2.54294-1.74374-4.50466v-6.35738c0-.92032.15742-1.75585.47226-2.50663.31485-.75078.75683-1.39257 1.32597-1.92538s1.2412-.94452 2.0162-1.23515c.775-.29062 1.63475-.43593 2.57928-.43593zm-68.639355 0c.920312 0 1.767954.14531 2.542953.43593.774999.29063 1.43495.70234 1.979871 1.23515s.968743 1.1746 1.271477 1.92538.454098 1.58631.454098 2.50663v3.01521l-9.190959 1.67108v1.30781c0 1.01719.345112 1.78006 1.035345 2.28866.690234.50859 1.543931.76288 2.561117.76288.775 0 1.465223-.15136 2.070691-.4541.605468-.30273 1.223036-.76893 1.852723-1.39862l1.998035 2.43397c-.896093.96875-1.822445 1.67714-2.779085 2.12518-.95664.44805-2.06463.67207-3.324003.67207-2.252341 0-4.002118-.50859-5.249382-1.52577-1.247264-1.01719-1.870887-2.65193-1.870887-4.90427v-6.03043c0-1.96172.611513-3.46326 1.834559-4.50466 1.223045-1.04141 2.827512-1.5621 4.813447-1.5621zm-12.95961-4.90427v5.26755h3.63279v2.68826h-3.63279v10.38978c0 .46016.115037.83554.345115 1.12617.230078.29062.514644.43593.853706.43593.629687 0 1.168545-.0666 1.616591-.1998.448047-.1332.938469-.3209 1.47128-.56308l.762886 2.79724c-.678124.33907-1.392565.65391-2.143346.94453-.75078.29062-1.477331.43593-2.179674.43593-1.646873 0-2.809354-.34511-3.487479-1.03534-.678124-.69023-1.017181-1.84666-1.017181-3.46932v-10.86204h-2.760921v-2.68826h2.760921v-5.26755zm60.257063 0v5.26755h3.632792v2.68826h-3.632792v10.38978c0 .46016.115037.83554.345115 1.12617.230078.29062.514644.43593.853706.43593.629691 0 1.168541-.0666 1.616591-.1998s.93847-.3209 1.47128-.56308l.76289 2.79724c-.67813.33907-1.39257.65391-2.14335.94453s-1.47733.43593-2.179674.43593c-1.646873 0-2.809354-.34511-3.487479-1.03534-.678124-.69023-1.017181-1.84666-1.017181-3.46932v-10.86204h-2.76092v-2.68826h2.76092v-5.26755zm-85.050119-1.63475v21.32447h9.372599v3.3785h-13.041717v-24.70297zm15.720531 6.9023v17.80067h-3.778102v-17.80067zm38.406568-.29063c.508593 0 .890033.04239 1.144329.12715.254297.08477.514644.18769.78105.30879l-.653902 3.48748c-.314844-.16953-.629682-.29668-.944526-.38145-.314843-.08476-.593354-.12714-.835541-.12714-.726562 0-1.325967.32089-1.798232.96269-.472265.64179-.708394 1.55604-.708394 2.74275v10.97103h-3.705446v-17.80067h2.797249l.399607 2.216c.484374-.94453 1.029287-1.59843 1.634755-1.96171s1.235146-.54492 1.889051-.54492zm8.055344.29063v17.80067h-3.778102v-17.80067zm34.301518 0v17.80067h-3.77811v-17.80067zm-58.694967 3.05154c-.871874 0-1.586316.23008-2.143346.69023-.557031.46016-.835542 1.11405-.835542 1.96171v2.14334l5.485513-.98085-.036328-1.23515c-.048437-.82343-.266402-1.45917-.653902-1.90721-.387499-.44805-.992958-.67207-1.816395-.67207zm-22.068463-9.95384v3.99606h-3.814429v-3.99606zm46.461912 0v3.99606h-3.81443v-3.99606zm34.301518 0v3.99606h-3.81443v-3.99606z" fill="#fff" fill-rule="evenodd" transform="translate(-853 -1305)"/></svg>