<svg height="40" viewBox="0 0 164 40" width="164" xmlns="http://www.w3.org/2000/svg"><path d="m879.504203 1246.07163c2.883087.99465 5.301745 2.49568 7.491203 4.64173 1.345039 1.32019 2.304057 2.53186 3.214824 4.057 1.755185 2.95384 2.678014 6.1488 2.780551 9.63311.108568 3.70134-.741883 7.18566-2.54532 10.3987-3.763697 6.70942-11.104111 10.676-18.800387 10.15154-5.675702-.3858-10.886974-3.14071-14.433534-7.64379-2.225647-2.82724-3.649097-6.31156-4.107496-10.04304-.138725-1.13933-.138725-3.43609 0-4.55131.796167-6.49843 4.505579-12.03838 10.169218-15.22128 4.843347-2.71873 10.929195-3.24922 16.230941-1.42266zm-8.429919 2.11578c-2.277675.28347-4.537273 1.02533-6.411233 2.09289-.747173.42822-1.801652 1.14596-2.223444 1.51387l-.2591.2292 1.114734 1.10977 1.10871 1.10978.415766-.30157c1.397938-1.03137 3.133309-1.85164 4.832527-2.27383 1.259349-.31967 1.687166-.36189 3.320102-.36792 1.343708 0 1.632936.01809 2.307803.13872 5.838801 1.0555 10.213383 5.42825 11.255811 11.2606.126537.68758.144614.97709.138588 2.32209 0 1.19421-.024102 1.67069-.102435 2.14114-.512175 2.90109-1.765499 5.39206-3.74792 7.44273-4.290223 4.43307-11.075042 5.44031-16.486026 2.44271-2.68139-1.48372-4.796374-3.8239-5.97739-6.60437-1.102684-2.59349-1.391912-5.39809-.849609-8.13634.20487-1.02533.897814-3.07601 1.036402-3.07601.024103 0 1.644988 1.59832 3.59728 3.55852l3.555101 3.55852 2.862157-2.86491 2.862158-2.86491 2.428314 2.43065 2.422289 2.42462-2.862157 2.86491-2.856132 2.85888-.65679-.64536c-.56038-.54886-.686917-.64536-.849608-.64536-.126538 0-.24705.05428-.337434.15078l-.15064.14476v4.93367l.156666.14475.156665.14476h4.880732l.144614-.16888c.277178-.3257.216922-.47045-.488073-1.18215l-.626662-.64536 3.579203-3.58265c2.374085-2.37636 3.627408-3.67311 3.705741-3.83596.132563-.27141.156665-.75392.05423-1.03136-.066281-.18698-7.881477-8.05794-8.128527-8.19063-.265126-.13872-.668841-.16888-.964095-.06031-.228972.07841-.674866.49457-2.819978 2.64175l-2.542801 2.54524-3.850355-3.85405-3.844329-3.84803-.331408.41013c-.855634 1.06756-1.801653 2.7081-2.368058 4.12547-.524227 1.30278-.909865 2.85888-1.090633 4.40292-.120512 1.07961-.090384 3.29916.066282 4.28228.590508 3.76359 2.199342 6.95419 4.850603 9.58991 2.687415 2.6719 6.067774 4.31244 9.900052 4.79495.91589.11459 3.561126.08444 4.440863-.05428 2.524724-.39808 4.838552-1.29675 6.917383-2.69603 3.928687-2.63572 6.513667-6.63453 7.296994-11.27267.765251-4.52957-.385638-9.25818-3.151385-12.92526-2.801902-3.72136-6.73059-6.00726-11.424528-6.65262-.91589-.12666-3.115232-.14475-4.00702-.03015zm118.689436 22.73459c.475721.4915.569613.71926.569613 1.40856 0 .50349-.025038.64135-.143968.87511-.225342.43156-.544575.74924-.963961.94703-.331753.16184-.444424.18581-.85755.17982-.262899 0-.600911-.04795-.757398-.0959-.181526-.06593-.413127-.22777-.663506-.46153-.469462-.44954-.61969-.80918-.61343-1.4745.006259-1.75021 2.20334-2.63132 3.4302-1.37859zm-72.101748-.58867c.417767 0 .554944.03011.848005.16863.411531.19271.823063.5962 1.010123.99367.19953.40951.193295 1.2466-.006235 1.66213-.205766.43361-.511297.77085-.891652.96959-.455179.23486-1.22836.27702-1.720951.08431-.424003-.15658-.85424-.57212-1.066241-1.00572-.137178-.28907-.168354-.42758-.168354-.88527 0-.44564.024941-.59018.149648-.82504.218236-.42758.592356-.80698.991417-.99367.299296-.13852.436473-.16863.85424-.16863zm31.782472-14.22222v17.77778h-3.111111v-17.77778zm-43.777777 0v6.69711h1.684848c2.351515 0 3.084849.10959 4.084849.60883.678788.34094.987878.56621 1.472727 1.06545.957576.9863 1.424242 2.25266 1.424242 3.88432 0 1.64383-.50303 2.94064-1.545454 3.96956-.751515.74277-1.624243 1.1933-2.787879 1.43683l-.089622.01783c-.402987.07586-.842242.0938-2.957571.09717l-4.619474.00068v-17.77778zm60.426095-.20892c1.137615.28582 1.969419.73242 2.75841 1.49461 1.107034 1.05992 1.712538 2.39375 1.865444 4.10272.033146.33883.056312 2.60138.060486 5.39234l.000676 6.55258h-3.363915l-.000822-7.54831c-.003765-3.3346-.022252-4.12189-.090921-4.45616-.238532-1.22069-1.039755-2.07816-2.207951-2.37589-.470948-.11909-1.541284-.11909-2.012232 0-.837921.21437-1.590214.81579-1.926606 1.54225-.327443.70242-.362798.8361-.366538 5.5396l-.000434 7.29851h-3.363915l.000374-6.13772c.003572-2.82385.03218-5.34025.060789-5.73575.159021-2.14961 1.100917-3.82881 2.715596-4.86491 1.553517-.99442 3.828746-1.30405 5.871559-.80387zm-60.426095 9.87711v5.13242l1.745454-.01826c1.648485-.01827 1.757576-.03045 2.090909-.1583.69697-.28615 1.212122-.84018 1.418182-1.53425.133333-.44444.127273-1.33333-.012121-1.73516-.236364-.70015-.733333-1.22983-1.406061-1.49771-.333333-.13395-.448485-.14003-2.090909-.16439zm92.226741-10.11236c1.280602-.00602 1.735793.08424 2.694732.54157.76472.36104 1.21384.68598 1.82683 1.32985.8072.84243 1.32915 1.85938 1.57799 3.08693.17601.84845.15173 2.47316-.04855 3.20728-.52802 1.93159-1.60227 3.27347-3.25917 4.07981-1.12887.54758-2.573341.77023-3.768975.57165-2.803973-.45732-4.806811-2.53935-5.183102-5.3916-.297391-2.2806.412706-4.42882 1.930008-5.84893.23063-.21662.546228-.47537.691889-.57767.485537-.33096 1.256326-.67997 1.857178-.83642.528021-.14442.704027-.16247 1.68117-.16247zm-58.790319.0006c.958788 0 1.096613.01805 1.587992.16847 1.552038.46931 2.630674 1.32972 3.289841 2.62333.257674.51143.431454.95066.383515.99278-.035954.04211-2.576742.81828-2.594719.80023-.005993-.01203-.083894-.15042-.167788-.31889-.473402-.93862-1.180508-1.41395-2.271129-1.5042-1.372265-.12034-2.714568.75812-3.11606 2.03368-.059925.19856-.107864.44525-.107864.55957v.20457h8.377409l.035954.13838c.065917.25873.035955 1.63056-.059924 2.25631-.41947 2.83392-2.145288 4.57879-4.835886 4.87963-.653174.07221-1.114591.07221-1.617955 0-.826954-.12033-1.917575-.58363-2.594719-1.10107-.41947-.31288-1.000735-.92058-1.282379-1.32972-.107864-.15042-.323591-.55355-.479394-.89049-.503364-1.06497-.695121-2.06978-.641189-3.41153.047939-1.20336.215727-1.91335.683136-2.85799.808977-1.63055 2.157273-2.71358 3.919045-3.14077.347561-.08424.677144-.10831 1.492114-.10229zm37.491923.44357.017867 3.84817.017867 3.84219.136982.34113c.190582.47877.482412.87975.798064 1.10717.714684.52067 2.007072.47877 2.6622-.0778.339475-.29325.643216-.94559.72064-1.52012.028538-.23515.057076-1.89936.059404-3.74953l.000153-3.79121h3.102922l-.023823 4.3868-.017867 4.38081-.160804.56854c-.315652 1.14907-.833798 1.9211-1.64973 2.44775-.958868.62241-2.269123.82589-3.394752.52067-.76233-.20348-1.27452-.47878-1.727154-.93361-.214405-.21545-.446678-.46681-.518146-.56855l-.131026-.17954v.76604l-.005955.76006-1.500838-.01197-1.506793-.01796-.017867-6.05652-.011912-6.06252zm32.450398 0 .00038 4.85045c.00231 2.50062.01783 2.74174.11278 3.0439.20845.67632.64322 1.20899 1.19114 1.46635.22036.10175.39308.12569.89931.12569.54793 0 .66704-.01796.95292-.15561.55983-.26335.97078-.80799 1.12562-1.49628.04169-.1616.06552-1.71174.06552-4.04593v-3.78857h3.16248l-.01787 4.32723-.02382 4.32125-.16081.59851c-.08933.32918-.26801.82594-.40499 1.10724-.76233 1.55014-2.65028 2.38806-4.4906 1.99304-1.0482-.22145-1.85222-.74814-2.42397-1.58007-.09529-.13766-.10125-.11371-.10125.62245l-.00595.76011h-3.03741v-12.14976zm-89.823188-.44444v12.44444h-1.514465c-.833543 0-1.537946-.01839-1.555556-.04291-.020717-.01623-.036865-2.19926-.040378-5.04991l-.000712-7.35162zm4.993104 0 .122605.20843c.22682.39846 2.323372 3.59233 2.354023 3.59233.018391-.00613.588506-.8521 1.268966-1.88812l1.232183-1.88199 1.906514-.01839 1.900383-.01226-2.176245 3.16322-2.176245 3.16934.23908.3433c1.667433 2.40306 3.935632 5.70728 3.935632 5.7318s-.815325.03065-1.820689.02452l-1.81456-.01839-1.170881-1.82069c-.643678-1.00536-1.189272-1.82069-1.213793-1.80843-.055173.01839-2.378544 3.54943-2.378544 3.61073 0 .02452-.870498.04904-1.937165.04904h-1.931034l.514942-.74789c.288123-.41686 1.250575-1.81456 2.145594-3.10805l1.630651-2.35402-.45364-.64981c-.24521-.35555-1.207662-1.75939-2.133333-3.11418l-1.691954-2.47049zm65.673563 0v12.44444h-3.111111v-12.44444zm-48.430778 7.78663h-5.309287l.041947.28279c.059924.46329.353553 1.01684.74306 1.38988.671152.65583 1.492114.90252 2.444909.72804 1.096614-.19856 1.917576-1.04693 2.043417-2.11191zm54.256452-3.89911c-.303461.34901-.625129.99287-.740444 1.46825-.109245.48741-.127453 1.55249-.024276 2.05194.22456 1.1072 1.128872 2.12414 2.124222 2.38891.491606.13238 1.244187.12035 1.705447-.02407.734374-.22264 1.341298-.73412 1.717588-1.44418.32268-.60676.41586-.95058.42448-1.70819l.00036-.21738c0-.71607-.01821-.87253-.16387-1.29976-.38843-1.16136-1.159215-1.87744-2.251672-2.11211-1.001419-.21061-2.160638.16247-2.791835.89659z" fill="#fff" transform="matrix(1 0 0 -1 -853 1285)"/></svg>