<svg height="30" viewBox="0 0 123 30" width="123" xmlns="http://www.w3.org/2000/svg"><path d="m1122.49404 1153.77483c-.3807-.27555-.6825-.31491-.9318.20994-4.2777 9.25074-11.4816 4.63197-10.7598 5.03874 1.6008-.73482 5.7999-4.09398 5.1699-8.75217-.3804-2.84742-2.8212-4.1071-5.4192-3.64786-4.527.78733-6.1803 5.6686-5.3406 9.98563.1443.74796.4068 1.35156.6825 1.95516-5.1045 4.15956-7.13821-3.71346-7.37461-4.65822-.0129-.0525 3.94981-3.34605 5.05201-11.20594 1.1547-8.22732-1.4697-9.73631-4.15951-9.68383-4.9731.09186-6.3117 10.47112-4.5141 19.11833-.1443.03936-.8529.43302-1.9812.47238-.8136-2.55873-4.2909-4.80252-5.1963-3.93651-2.2701 2.1651.5511 6.39027 2.5458 6.71832-1.1943 7.36128-8.6736 5.53737-7.2828-3.68721 2.4276-4.51386 4.2909-11.2453 3.9498-15.29992-.1182-1.43025-1.1811-3.35914-3.5823-3.26729-4.6188.1837-5.1174 10.56296-4.5795 17.93739-.0261-.18372-.2886.89226-2.1783 1.43025-.4461-2.47998-4.4481-4.98624-5.39281-3.77904-1.7583 2.24382 1.29901 6.24594 2.74231 6.52149-1.194 7.36128-8.67331 5.53734-7.28251-3.68721 2.4408-4.51387 4.2909-11.23219 3.9627-15.28678-.1179-1.43028-1.1808-3.35917-3.5823-3.26732-4.6188.18371-5.1174 10.56296-4.5792 17.93739-.0264-.18372-.2889.93165-2.2572 1.4565-.0654-3.22794-4.0806-4.69758-5.0517-3.67407-1.719 1.83702.3936 5.60295 2.3487 6.52149-1.194 7.36128-8.6733 5.53734-7.2825-3.68721 2.4276-4.51387 4.2909-11.2453 3.9498-15.29992-.105-1.41714-1.1679-3.34603-3.5694-3.25418-4.6188.18371-4.986 11.08784-4.4481 18.46224-1.5222 6.52149-6.62641 14.65701-5.95741-1.65333.0657-1.14159.1314-1.57461-.4329-2.0076-.4329-.32805-1.404-.17061-1.929-.15747-.6429.02625-.8133.40677-.9447.97101-.3279 1.46961-.3936 2.89989-.4461 4.85502-.0261.91851-.105 1.33842-.4593 2.58498s-2.3487 3.51663-3.4509 3.13608c-1.5222-.52485-1.0236-4.81566-.735-7.76805.2364-2.33565-.5247-3.37227-2.46675-3.75279-1.14159-.23619-1.83702-.19683-3.01797-.57739-1.12848-.35427-1.37778-2.47998-3.76593-1.77141-1.31217.39366-.47238 3.16234-.78732 5.22244-1.54836 10.11684-4.76316 10.39239-6.25905 5.48487 6.71832-16.48087 1.92891-22.97611-.86605-22.97611-2.913 0-6.24591 2.00762-4.84191 14.8669-.68232-.19683-.89226-.3018-1.65333-.3018-4.2383-.01311-7.1382 3.42477-7.1382 7.66308s2.8999 7.67619 7.15134 7.67619c2.50623 0 4.26453-1.14159 5.60295-2.89989.86604 1.24656 1.92892 2.92614 3.87091 2.84742 5.77356-.22308 7.45314-12.07197 7.64997-12.74118.61671.09186 1.2072.27555 1.77144.36741.94476.14433 1.02348.52485.99723 1.46961-.2493 8.05674 1.23345 10.87791 4.60587 10.87791 1.8762 0 3.5559-1.85016 4.7106-3.16233.8661 1.78455 2.2305 3.10983 4.0809 3.16233 4.46131.10497 6.18031-7.00701 6.02281-6.07536-.1182.73482 1.4433 6.02286 6.0492 6.04911 5.6946.02625 6.7575-6.2328 6.8757-7.28253.0261-.18372.0132-.20997 0 0v.06558c1.8108-.34116 2.7423-1.29903 2.7423-1.29903s1.4565 8.62095 6.8235 8.52912c5.57671-.105 6.63931-5.76045 6.77071-6.86268.0261-.23619.0132-.26241 0 0v.02625c2.1519-.78729 2.7162-1.56147 2.7162-1.56147s1.1547 8.45037 6.8232 8.52909c5.052.06573 6.9282-5.11746 6.9414-7.28253.8529.01311 2.4276-.51174 2.3883-.53799 0 0 1.8501 7.38753 7.02001 7.76805 2.4276.1836 4.2513-1.36467 5.2881-2.07324 2.4405 1.98138 10.563 4.50084 15.6936-4.19895.7347-1.23342-.8268-2.71617-1.1022-2.89989zm-114.55267 6.31155c-2.47998 0-4.06771-2.29629-4.06771-4.76319 0-2.46687 1.45651-4.76319 3.93652-4.76319 1.11534 0 1.73205.11811 2.6112.87918.15747.61671.6036 2.04699.82668 2.70306.28866.86604.64296 1.61397.98412 2.4144-.51174 2.07321-2.13885 3.52974-4.29081 3.52974zm6.036-8.58159c-.10497-.17058-.07872-.06561-.19683-.22308-.44613-1.23345-1.32528-3.98901-1.43025-7.1251-.11811-3.54285.47238-7.70244 2.21754-7.70244 1.18099 0 2.44066 8.42415-.59046 15.05062zm34.91675-3.68721c-.2754-2.09947-.2886-11.48149 1.9554-11.21908 1.2465.49863-.7875 9.34266-1.9554 11.21908zm16.4415 0c-.2754-2.09947-.2886-11.48149 1.9554-11.21908 1.2465.49863-.7875 9.34266-1.9554 11.21908zm16.31041.13122c-.2757-2.0995-.2886-11.48152 1.9551-11.21908 1.2465.48552-.7872 9.34266-1.9551 11.21908zm18.003-11.91451c2.06011-.20996 1.96831 8.77842-2.1519 14.44699-.5382-2.04699-1.3515-13.73842 2.1519-14.44699zm8.66041 19.35451c-.6561-3.34602 1.0497-5.53737 2.808-5.77356.6168-.09183 1.509.3018 1.6794 1.04976.2889 1.404-.0393 3.49035-3.9888 6.12783.0132.01311-.3543-.66921-.4986-1.40403zm-69.79443-10.31368c1.404 0 2.5455-1.14159 2.5455-2.54559 0-1.40403-1.1415-2.54562-2.5455-2.54562s-2.5458 1.14159-2.5458 2.54562c0 1.404 1.1418 2.54559 2.5458 2.54559z" fill="#fff" fill-rule="evenodd" transform="translate(-1001 -1133)"/></svg>