<svg height="45" viewBox="0 0 45 45" width="45" xmlns="http://www.w3.org/2000/svg"><path d="m1271.5 1179c5.96737 0 11.69033 2.37053 15.9099 6.5901s6.5901 9.94253 6.5901 15.9099c0 12.42641-10.07359 22.5-22.5 22.5s-22.5-10.07359-22.5-22.5 10.07359-22.5 22.5-22.5zm-.00034 1.47541c-5.57898-.01523-10.9322 2.20213-14.86639 6.15788-8.21048 8.21063-8.21048 21.52269 0 29.73333 8.21048 8.21063 21.52229 8.21063 29.73277 0 6.01295-6.01296 7.81173-15.05605 4.55756-22.91242-3.25417-7.85636-10.92042-12.97879-19.42394-12.97879zm-1.10622 21.00158c0-4.60152-2.62016-7.72289-7.61183-7.72289h-4.92915v15.4918h5.03288c4.84531 0 7.5081-3.16585 7.5081-7.76737zm-3.68852.02533c0 3.34875-1.7261 4.79276-4.50152 4.79276h-1.40012v-9.59016h1.39702c2.659 0 4.50151 1.51668 4.50151 4.79276zm18.44262 7.74358v-15.4918h-3.24085v8.66621l-5.17812-8.66621h-3.38431v15.4918h3.24225v-9.27207l5.54441 9.27207z" fill="#fff" transform="translate(-1249 -1179)"/></svg>