<svg height="35" viewBox="0 0 123 35" width="123" xmlns="http://www.w3.org/2000/svg"><path d="m975.5 1131v35h-122.5v-35zm-13.063639 12.32557c-2.520727 0-3.876154.30733-6.568609 1.3953l-.601049 3.54049 3.502031.37495.496786-1.73337c.717579-.37494 1.429025-.44256 2.348998-.44256 2.410871 0 2.516445 1.76609 2.52057 3.30311l.000157.64922c-.785044-.1045-1.668218-.13523-2.520727-.13523-3.502031 0-7.145125.88512-7.145125 4.67149 0 3.20242 2.514593 4.40103 4.728662 4.40103 2.483928 0 4.047882-1.49979 4.931057-3.0672.202394 1.87474 1.324761 3.0672 3.367102 3.0672.950639 0 1.938076-.27045 2.753786-.71916l-.024533-2.31731c-.239193.06762-.441587.1045-.643981.1045-.717579 0-1.054902-.30734-1.054902-1.19246v-6.68146c0-3.50976-2.790586-5.21854-6.090223-5.21854zm-63.53335 0c-5.513706 0-8.236827 3.71875-8.236827 8.21813 0 4.91121 3.268971 7.8063 7.997634 7.8063 4.90039 0 8.439221-3.10408 8.439221-8.01529 0-4.29654-2.692455-8.00914-8.200028-8.00914zm56.007969-7.77557h-4.323874l-6.636074 23.46193h4.323875zm-8.911474 0h-4.317741l-6.636073 23.46193h4.317741zm-13.830264 17.93605h-4.593733v5.52588h4.593733zm-8.788811-9.85929h-13.474541l-.54585 5.39065 3.164707.34421.680781-2.38492h4.796127l-8.439221 9.71793.441587 2.3173h13.407076l.950639-5.39065-3.471365-.33807-.711446 2.38492h-4.967856l8.512819-9.72407zm-41.932379-.30734c-2.416463 0-4.152145 1.26007-5.004654 3.30692-.754378-2.24969-2.790585-3.30692-5.004654-3.30692-2.140471 0-3.741225.98962-4.661198 2.62464v-2.3173h-6.427546v3.3438h2.042341v8.69757h-2.042341v3.3438h9.353061v-3.3438h-2.925515v-5.34762c0-2.15135.852509-3.65114 2.962314-3.65114 1.735683 0 2.618857 1.02035 2.618857 3.68187v8.66069h6.427546v-3.3438h-2.04234v-5.34762c0-2.15135.852508-3.65114 2.962313-3.65114 1.735683 0 2.618857 1.02035 2.618857 3.68187v8.66069h6.43368v-3.3438h-2.036208v-7.03182c0-3.64499-2.520726-5.31689-5.274513-5.31689zm80.479257 9.00491c.711446 0 1.49649.10449 2.214069.20284-.104264 2.56317-1.772482 3.68802-3.336436 3.68802-1.324762 0-1.803148-.78678-1.803148-1.7764 0-1.6719 1.361561-2.11446 2.925515-2.11446zm-63.091763-5.62423c2.073006 0 3.741224 1.3953 3.741224 4.49938 0 2.93198-1.496489 4.77598-3.778023 4.77598-2.379664 0-3.606295-2.04684-3.606295-4.70836 0-2.90124 1.392226-4.567 3.643094-4.567zm33.333696-3.0672h-4.593733v5.51973h4.593733z" fill="#fff" transform="translate(-853 -1131)"/></svg>