<svg height="40" viewBox="0 0 40 40" width="40" xmlns="http://www.w3.org/2000/svg"><path d="m20 40c-11.045695 0-20-8.954305-20-20s8.954305-20 20-20 20 8.954305 20 20-8.954305 20-20 20zm-.7733333-20.0266667c0-4-2.4586667-6.7133333-7.1426667-6.7133333h-4.62533333v13.4666667h4.72266663c4.5466667 0 7.0453334-2.752 7.0453334-6.752zm-3.3573334.02c0 2.888-1.4826666 4.1333334-3.8666666 4.1333334h-1.2026667v-8.2706667h1.2c2.284 0 3.8666667 1.308 3.8666667 4.1333333zm16.6466667 6.7333334v-13.4666667h-3.1026667v7.5333333l-4.9573333-7.5333333h-3.24v13.4666667h3.104v-8.06l5.308 8.06z" fill="#2d72d9" fill-rule="evenodd"/></svg>