<svg height="40" viewBox="0 0 40 40" width="40" xmlns="http://www.w3.org/2000/svg"><g fill="none" fill-rule="evenodd"><circle cx="20" cy="20" fill="#ea4c89" fill-rule="nonzero" r="19.2"/><path d="m20 0c-11.0412 0-20 8.9588-20 20s8.9588 20 20 20c11.01952 0 20-8.9588 20-20s-8.98048-20-20-20zm13.2104 9.21908c2.38612 2.90672 3.8178 6.61608 3.8612 10.62908-.564-.10848-6.20392-1.25812-11.8872-.54232-.13016-.28196-.23864-.58568-.36876-.88936-.34708-.82428-.73756-1.67028-1.128-2.47288 6.29068-2.55964 9.154-6.24728 9.52276-6.72452zm-13.2104-6.268972c4.3384 0 8.30804 1.626892 11.3232 4.295012-.30368.43384-2.88504 3.88288-8.95876 6.16052-2.79828-5.141-5.90024-9.34924-6.37744-10 1.2798-.303688 2.62472-.455532 4.013-.455532zm-7.2668 1.605212c.45552.60736 3.4924 4.83732 6.33404 9.86984-7.98264 2.1258-15.03252 2.08244-15.791752 2.0825066 1.106272-5.2929066 4.685472-9.6963866 9.457712-11.9523466zm-9.826476 15.46636c0-.17352 0-.34704 0-.5206.737528.02168 9.023876.13016 17.548796-2.42948.49892.95444.95444 1.93056 1.38828 2.90672-.21692.06508-.45552.13016-.67244.1952-8.80692 2.84168-13.4924 10.6074-13.88284 11.25816-2.71152-3.0152-4.381796-7.0282-4.381796-11.41zm17.093276 17.0716c-3.94792 0-7.5922-1.34492-10.47724-3.60088.30372-.62904 3.77444-7.3102 13.40564-10.67244.0434-.02168.06508-.02168.10848-.0434 2.4078 6.2256 3.38396 11.45336 3.64424 12.95012-2.06072.88936-4.31668 1.3666-6.68112 1.3666zm9.5228-2.9284c-.17356-1.04124-1.0846-6.0304-3.31888-12.1692 5.35792-.846 10.04336.54228 10.62904.73752-.73752 4.75052-3.47072 8.85032-7.31016 11.43168z" fill="#c32361"/></g></svg>