<svg height="41" viewBox="0 0 40 41" width="40" xmlns="http://www.w3.org/2000/svg" xmlns:xlink="http://www.w3.org/1999/xlink"><defs><circle id="a" cx="20" cy="20" r="20"/><filter id="b" height="105%" width="102.5%" x="-1.2%" y="-1.2%"><feOffset dx="0" dy="1" in="SourceAlpha" result="shadowOffsetOuter1"/><feColorMatrix in="shadowOffsetOuter1" type="matrix" values="0 0 0 0 0.215686275   0 0 0 0 0.701960784   0 0 0 0 0.415686275  0 0 0 1 0"/></filter></defs><g fill="none" fill-rule="evenodd"><use fill="#000" filter="url(#b)" xlink:href="#a"/><use fill="#39ca74" fill-rule="evenodd" xlink:href="#a"/><path d="m20.1978099 9.61609756c-5.8182134 0-10.53646844 4.71685024-10.53646844 10.53670254 0 5.8182135 4.71825504 10.5352978 10.53646844 10.5352978 5.8186817 0 10.5367026-4.7170843 10.5367026-10.5352978 0-5.8198523-4.7180209-10.53670254-10.5367026-10.53670254zm3.5288577 6.13850784c.751568 0 1.3617194.6101515 1.3617194 1.3596123 0 .7522704-.6101514 1.3612512-1.3617194 1.3612512-.7515681 0-1.3591441-.6089808-1.3591441-1.3612512 0-.7492267.607576-1.3596123 1.3591441-1.3596123zm-7.2103703 0c.751568 0 1.3614854.6101515 1.3614854 1.3596123 0 .7522704-.6099174 1.3612512-1.3614854 1.3612512-.7492267 0-1.3570368-.6089808-1.3570368-1.3612512 0-.7492267.6078101-1.3596123 1.3570368-1.3596123zm3.5923078 12.3842487c-4.0659595 0-7.3634935-2.1971072-7.3826924-7.3480406h14.762341c-.015921 5.1509334-3.3141573 7.3480406-7.3796486 7.3480406z" fill="#fff"/></g></svg>