<svg height="30" viewBox="0 0 30 30" width="30" xmlns="http://www.w3.org/2000/svg"><path d="m220 1394c-8.283482 0-15 6.88429-15 15.38251 0 6.79723 4.299107 12.55647 10.258929 14.59229.75.14063 1.024553-.33484 1.024553-.74334 0-.36833-.013393-1.33266-.020089-2.61845-4.171875.93086-5.055804-2.06261-5.055804-2.06261-.683035-1.77464-1.66741-2.25011-1.66741-2.25011-1.359375-.95764.100446-.93755.100446-.93755 1.506696.10714 2.296875 1.58713 2.296875 1.58713 1.339286 2.35057 3.508929 1.6742 4.366071 1.27909.133929-.99112.522322-1.6742.950893-2.05591-3.328125-.38842-6.830357-1.70768-6.830357-7.60085 0-1.68089.582589-3.05373 1.540179-4.12522-.154018-.38841-.669643-1.95546.147321-4.07164 0 0 1.258929-.4152 4.125 1.57374 1.198661-.34154 2.477679-.50895 3.756697-.51565 1.272321.0067 2.558035.17411 3.756696.51565 2.866071-1.98894 4.118304-1.57374 4.118304-1.57374.816964 2.11618.301339 3.68323.147321 4.07164.957589 1.07818 1.540179 2.45102 1.540179 4.12522 0 5.90656-3.508929 7.20574-6.850447 7.58745.535714.47547 1.017857 1.41302 1.017857 2.84614 0 2.05591-.020089 3.71671-.020089 4.21897 0 .4085.267857.89067 1.03125.73664 5.973214-2.02912 10.265625-7.78835 10.265625-14.57889 0-8.49822-6.716518-15.38251-15-15.38251z" fill="#fff" transform="translate(-205 -1394)"/></svg>