<svg height="40" viewBox="0 0 40 40" width="40" xmlns="http://www.w3.org/2000/svg"><path d="m19.8578591 47.1420949c7.8105388 7.8104988 20.473737 7.8104988 28.2842358 0s7.8104988-20.473697 0-28.2842358c-7.8104988-7.8104788-20.473697-7.8104788-28.2842358 0-7.8104788 7.8105388-7.8104788 20.473737 0 28.2842358zm19.4454371-14.5839978-5.7451991-5.7452992-1.1351999 1.1351999c-.1952999.1952999-.5118999.1952999-.7070999 0-.0937999-.0938-.1464999-.2209-.1464999-.3536v-4.4799993c0-.27617.2238999-.5000299.4999999-.5000299h4.4800993c.2761 0 .4999999.2238599.4999999.5000299 0 .1326-.0526999.2597999-.1463999.3534999l-1.1351999 1.1351999 7.070999 7.0710989c.4881999.4880999.4881999 1.2795998 0 1.7676997l-7.5129989 7.5130989c-.4880999.4880999-1.2795998.4880999-1.7676997 0l-4.8613993-4.8613993-7.6835089 7.6834989c-5.5146591-6.629599-5.1631992-16.4918975 1.0543799-22.7095266 6.590129-6.590089 17.2747274-6.590089 23.8648264 0 6.590099 6.590129 6.590099 17.2747274 0 23.8648264-6.2175991 6.2175991-16.0798976 6.569099-22.7094966 1.0543999l2.2212997-2.2212997c5.3979992 4.3008993 13.282398 3.9532994 18.2784972-1.0427999 5.3696992-5.3696992 5.3696992-14.0756978 0-19.445397-5.3696992-5.3697292-14.0756978-5.3697292-19.445397 0-4.2057794 4.2056993-5.1174293 10.4581984-2.7349696 15.5511976l7.1543689-7.1542989 5.7451991 5.7451991z" fill="#2858d1" fill-rule="evenodd" transform="translate(-14 -13)"/></svg>