<svg height="40" viewBox="0 0 40 40" width="40" xmlns="http://www.w3.org/2000/svg"><g fill="none" fill-rule="evenodd"><circle cx="20" cy="20" fill="#000" r="20"/><path d="m16.78 14.26-5.64 5.54 5.62 5.5-1.16 1.18-6.6-6.68 6.62-6.72zm11.8815386 8.12c0 1.08-.38 2.08-1.06 2.8-.74.78-1.86 1.26-3.42 1.26-1.34 0-2.46-.48-3.24-1.26-.72-.72-1.16-1.7-1.18-2.98h1.74c.04.78.26 1.44.72 1.92.42.46 1.08.78 1.96.78.84 0 1.6-.26 2.08-.8.38-.42.66-1 .66-1.76 0-1.7-1.22-2.58-2.92-2.58h-.9v-1.58h.9c1.6 0 2.62-.88 2.62-2.34 0-.64-.22-1.2-.66-1.62-.38-.38-1-.68-1.76-.68s-1.34.22-1.76.56c-.54.44-.82 1.12-.84 1.96h-1.74c.02-1.38.52-2.38 1.34-3.06.78-.64 1.84-1 3.04-1 1.16 0 2.28.42 3.02 1.12.7.64 1.12 1.52 1.12 2.72 0 1.3-.9 2.66-2.04 3.14 1.48.5 2.32 1.96 2.32 3.4z" fill="#fff" stroke="#fff"/></g></svg>