<svg height="30" viewBox="0 0 30 30" width="30" xmlns="http://www.w3.org/2000/svg"><path d="m277.011719 1415.13281c0-.41666-.195313-.7487-.585938-.99609-2.513021-1.4974-5.423177-2.2461-8.730468-2.2461-1.731771 0-3.600261.22136-5.605469.66407-.546875.11719-.820313.45573-.820313 1.01562 0 .26042.087891.48503.263672.67383s.406901.2832.693359.2832c.065105 0 .30599-.05208.722657-.15625 1.71875-.35156 3.300781-.52734 4.746094-.52734 2.942708 0 5.527343.67057 7.753906 2.01172.247396.14323.462239.21484.644531.21484.247396 0 .46224-.08789.644531-.26367.182292-.17578.273438-.40039.273438-.67383zm1.875-4.19922c0-.52083-.227865-.91797-.683594-1.1914-3.085937-1.83594-6.653646-2.75391-10.703125-2.75391-1.992188 0-3.964844.27344-5.917969.82031-.625.16927-.9375.58594-.9375 1.25 0 .32552.113933.60222.341797.83008.227865.22787.504557.3418.830078.3418.091146 0 .332032-.05208.722656-.15625 1.588542-.42969 3.222657-.64453 4.902344-.64453 3.632813 0 6.809896.80729 9.53125 2.42187.3125.16927.559896.25391.742188.25391.325521 0 .602213-.11393.830078-.3418.227864-.22786.341797-.50456.341797-.83008zm2.109375-4.84375c0-.61198-.260417-1.0677-.78125-1.36718-1.640625-.95052-3.548177-1.66993-5.722656-2.15821-2.17448-.48828-4.407553-.73242-6.699219-.73242-2.65625 0-5.026042.30599-7.109375.91797-.299479.09115-.55013.25716-.751953.49805-.201823.24088-.302735.55664-.302735.94726 0 .40365.133464.74219.400391 1.01563s.602213.41015 1.005859.41015c.143229 0 .403646-.05208.78125-.15625 1.731771-.48177 3.730469-.72265 5.996094-.72265 2.070312 0 4.085286.22135 6.044922.66406 1.959635.44271 3.610026 1.0612 4.951172 1.85547.273437.15625.533854.23437.78125.23437.377604 0 .70638-.13346.986328-.40039.279948-.26692.419922-.60221.419922-1.00586zm4.003906 2.91016c0 2.72135-.670573 5.23112-2.011719 7.5293-1.341146 2.29817-3.160807 4.11784-5.458984 5.45898-2.298177 1.34115-4.807943 2.01172-7.529297 2.01172s-5.23112-.67057-7.529297-2.01172c-2.298177-1.34114-4.117838-3.16081-5.458984-5.45898-1.341146-2.29818-2.011719-4.80795-2.011719-7.5293s.670573-5.23112 2.011719-7.5293c1.341146-2.29817 3.160807-4.11784 5.458984-5.45898 2.298177-1.34115 4.807943-2.01172 7.529297-2.01172s5.23112.67057 7.529297 2.01172c2.298177 1.34114 4.117838 3.16081 5.458984 5.45898 1.341146 2.29818 2.011719 4.80795 2.011719 7.5293z" fill="#fff" transform="translate(-255 -1394)"/></svg>