<svg height="30" viewBox="0 0 35 30" width="35" xmlns="http://www.w3.org/2000/svg"><path d="m179.47315 1396.47309c-1.3097-1.48904-3.1759-2.43775-5.24125-2.47213-3.9655-.06601-7.180775 3.28487-7.180775 7.48408 0 .59597.063525 1.17713.186025 1.73502-5.96785-.38709-11.258975-3.49473-14.80045-8.17911-.6181 1.12248-.9723 2.43442-.9723 3.8398 0 2.66049 1.2677 5.02165 3.19445 6.41579-1.17705-.05197-2.284275-.40829-3.252375-.99284-.0007.03195-.0007.06391-.0007.09643 0 3.71538 2.4752 6.8323 5.760125 7.55839-.602525.17073-1.2369.26008-1.89175.25574-.4627-.00307-.912625-.05438-1.351-.14651.913675 3.04699 3.56545 5.27041 6.70775 5.34393-2.457525 2.03999-5.553625 3.25495-8.918 3.24801-.5796-.0012-1.15115-.03865-1.7129-.11071 3.177825 2.18044 6.952225 3.44996 11.007325 3.45102 13.207775.00346 20.43055-11.49053 20.43055-21.46017 0-.32709-.007175-.65243-.020825-.97621 1.402975-1.0454 2.620275-2.3561 3.58295-3.8528-1.28765.58045-2.671725.96595-4.12405 1.12766 1.482425-.91235 2.62115-2.37254 3.157175-4.12358-1.387575.84147-2.92425 1.44491-4.559975 1.75819z" fill="#fff" transform="translate(-150 -1394)"/></svg>