<svg height="40" viewBox="0 0 40 40" width="40" xmlns="http://www.w3.org/2000/svg"><path d="m20 40c-11.045695 0-20-8.954305-20-20s8.954305-20 20-20 20 8.954305 20 20-8.954305 20-20 20zm-3.7335389-26.9291446c-.0215811.0246913-.0554944.0462963-.0770755.0462963-.0184981 0-.0585774.0246913-.0863246.0555555-.0462453.0524692-.0524114.1697531-.0524114 1.0740741.0030831.558642.0154151 1.1944444.0308303 1.4166667.0184981.2191358.0431622.8333333.0585774 1.3611111.0154151.5277777.0431623 1.0123456.0616604 1.0802469.0400793.1419753.0955736 2.0308642.1109888 3.7314815.006166.6450617.0277471 1.5123456.0524113 1.9290123.0462453.8796296.0493284 3.2469136.003083 3.5617284-.0277472.1759259-.0246641.2222222.0092491.2592593.0246642.0216049.0431623.0555555.0431623.074074 0 .0185186.0308302.0648149.0709095.1049383.0524114.058642.0986567.0740741.2281436.0740741.0863246 0 .1664831.0123457.1757322.0277778.0369962.0555555.292887.0709876.3946267.0216049.0524114-.0277778.1541511-.0493827.2281436-.0493827.1109888 0 .1510681-.0185185.2435587-.1080247.0585774-.0617284.1079057-.1296296.1079057-.1512346 0-.0246913.0215812-.058642.0462454-.0802469.0246641-.0216049.0462453-.0679012.0462453-.1049383 0-.0339506.0215811-.0925926.0462453-.1234568.0246642-.0339506.0462453-.095679.0462453-.1388888 0-.0432099.0215812-.1080247.0462453-.1388889.0246642-.0339506.0462454-.1018519.0462454-.1481482 0-.0493827.0215811-.095679.0462453-.1049382.0277472-.0123457.0462453-.058642.0462453-.1111112 0-.0493827.0184981-.1296296.0431623-.1728395.0215812-.0462963.0678265-.1388889.0955737-.2067901.0308302-.0679012.0739925-.1635802.0955736-.2098765.0246642-.0493827.0431623-.1080247.0431623-.1358025 0-.0246914.0215812-.0648148.0462453-.0895062.0246642-.0277778.0462454-.0895061.0462454-.1388889 0-.0524691.0184981-.0987654.0462453-.1080247.0246642-.0123456.0462453-.0524691.0462453-.095679 0-.0401234.0215812-.095679.0462453-.1203703.0246642-.0277778.0462453-.0864198.0462453-.1327161 0-.0493827.0215812-.1049383.0462454-.1265432.0246641-.0216049.0462453-.0648148.0462453-.0987654 0-.0308642.0431623-.1327161.0924906-.2253087.0524114-.0925926.0924907-.1944444.0924907-.2314815 0-.0339506.0215811-.0709876.0462453-.0802469.0277472-.0123456.0462453-.0586419.0462453-.1203703 0-.058642.0215812-.1234568.0462453-.1512346.0246642-.0246914.0462454-.0740741.0462454-.1111111 0-.0370371.0215811-.0864198.0462453-.1111111.0246641-.0277778.0462453-.0864198.0462453-.1327161 0-.0493827.0215811-.1049382.0462453-.1265432.0246642-.0216049.0462453-.0771605.0462453-.1234568s.0215812-.1018518.0462454-.1234568c.0246641-.0216049.0462453-.0679012.0462453-.1049382 0-.0339507.0215811-.0925926.0462453-.1234568.0246642-.0339506.0462453-.095679.0462453-.1388889.003083-.0432099.0277472-.1111111.0585774-.1512346.0524114-.0617284.0863246-.0679012.3175512-.0679012.2528078 0 .2620568.0030864.3268003.0925926.0369962.0493827.0678265.1172839.0678265.154321 0 .0339506.0154151.0617284.0308302.0617284.0184981 0 .0462453.0308642.0616604.0679012.0184981.0401234.0431623.0925926.0585774.1172839.0154151.0246914.0369963.0679013.0462453.0925926.0123321.0246914.0462453.0864198.0801586.1388889.0339132.0493827.0709095.1141976.0832416.1388889.012332.0246914.0400792.0648148.0616604.0864198.0215811.0216049.0400793.0617284.0400793.0833333 0 .0246914.0431623.0895062.0924906.1450617.0524114.0555556.0924906.117284.0924906.1419753 0 .021605.0215812.0462963.0462454.0555556.0246641.0123457.0462453.0339506.0462453.0493827 0 .0185185.0431623.0925926.0924906.1697531.0524114.0740741.0924907.154321.0924907.1728395 0 .0216049.0369962.0740741.0863246.1141975.0462453.0432099.1109887.1327161.144902.1975309.0339132.0679012.0986566.1635802.147985.2160494.0462453.0524691.0832416.1172839.0832416.1450617s.0215811.0679012.0462453.0895062c.0246642.0216049.0462453.0555555.0462453.0771605 0 .0216049.0215812.0555555.0462453.0771605.0246642.0216049.0462453.0586419.0462453.0833333s.0431623.0987654.0924907.1635802c.0524114.0648149.0924906.1450618.0924906.1790124s.0215812.0771605.0462454.0987654c.0246641.021605.0462453.058642.0462453.0802469 0 .0246914.0123321.0432099.0277472.0432099s.0431623.0401235.0616604.0925926c.0154151.0493827.0462453.0925926.0616604.0925926.0184981 0 .0339133.0401235.0339133.0864198 0 .0493827.0400792.1450617.0924906.2160493.0524114.0709877.0924906.1481482.0924906.1728395 0 .0246914.0123321.0493828.0246642.0555556.0246642.0092593.2065624.2962963.2558908.4074074.1079057.2314815.2034794.3271605.3391323.3271605.0647435 0 .1202379.0154321.1264039.037037.0154151.0432099.573442.0370371.6258533-.0061728.0184982-.0154321.0924907-.0308642.1695662-.037037.1171548-.0092593.144902-.0246914.1942304-.1111112.0554943-.0925925.0585774-.1759259.0554943-1.382716 0-.7098765-.012332-1.2993827-.0277471-1.3209877-.0154152-.0185185-.0369963-.6080246-.0493284-1.3117284-.0092491-.7037037-.0308302-1.2932098-.0462453-1.3117283-.0154151-.0185186-.0339132-.3117284-.0400793-.6512346-.0092491-.4012346-.0246642-.6419753-.0493283-.6851852-.0277472-.0493827-.0369963-.3796296-.0369963-1.2222222 0-.9567901-.009249-1.1697531-.0462453-1.2469136-.0369963-.0740741-.0493283-.3580247-.0647435-1.6018519-.0184981-1.382716 0-2.0802469.0709095-3.1728395.0092491-.1296296.0030831-.2222222-.0184981-.2438271-.0184981-.0185185-.0339132-.0648148-.0339132-.1018519 0-.1512345-.0246642-.1666666-.2589738-.1666666-.1233209 0-.2373927-.0154321-.2558908-.0339507-.0184981-.0185185-.1171548-.0401234-.2219775-.0493827-.1479851-.0154321-.2158115-.0061728-.3113852.0401235l-.1233208.058642v1.4351851c0 .9969136-.0154151 1.5864198-.0462454 1.9290124-.0554943.6203704-.0647434 3.5709876-.009249 3.7654321.0184981.0709876.0431623.6203704.0585774 1.2962963.0154151.6450617.0400793 1.2098765.0585774 1.2623457.0154151.0493827.0308302.3271605.0308302.6203703 0 .6265432-.003083.6327161-.289804.6327161-.1788152 0-.3884607-.0648148-.3884607-.1203704 0-.0154321-.0184981-.0493827-.0369963-.0709876-.0585774-.058642-.147985-.2654321-.147985-.3333334 0-.0339506-.0123321-.0617284-.0277472-.0617284-.0369962 0-.1572341-.2469135-.1572341-.3179012 0-.0308642-.0215811-.0617284-.0462453-.0709877-.0246642-.0123456-.0462453-.0493827-.0462453-.0895061 0-.0370371-.0184981-.0864198-.0431623-.1049383-.0246642-.0216049-.0524114-.0709877-.0616604-.1111111-.0123321-.0432099-.0339133-.0771605-.0493284-.0771605-.0184981 0-.0308302-.0246914-.0308302-.0524691 0-.0617284-.1171548-.308642-.1572341-.3364198-.0154151-.0092593-.0277472-.0432099-.0277472-.0740741s-.0184981-.0709876-.0400792-.0833333c-.0616605-.037037-.144902-.1851852-.144902-.2530864 0-.0339506-.0154152-.0709877-.0339133-.0802469-.0154151-.0123457-.0431623-.0524692-.0616604-.0864198-.0339132-.0833333-.0924907-.1759259-.141819-.2314815-.0215811-.0216049-.0400793-.0679012-.0400793-.0987654s-.0123321-.0617284-.0277472-.0679012c-.0308302-.0123457-.2497247-.4197531-.2497247-.4691358 0-.0555556-.2497247-.330247-.3268003-.3580247-.0801585-.0308642-.5210306.0864197-.6566835.1759259-.0863246.0555555-.1849813.1635802-.1880643.2037037 0 .0123457-.0616604.1512346-.138736.308642-.0770755.1604938-.1387359.3086419-.1387359.3302469 0 .0216049-.0184982.0648148-.0431623.0895062-.0585774.0679012-.2343097.4043209-.2343097.4506172 0 .021605-.0215811.0555556-.0462453.0771605-.0246641.021605-.0462453.0617284-.0462453.0925926s-.0215811.0709877-.0462453.0925926c-.0246642.021605-.0462453.0617284-.0462453.0895062 0 .0246914-.0400793.132716-.0894077.2345679-.0493283.1018518-.1418189.2962963-.2034794.4320988-.0647434.1358024-.1264038.2530864-.1387359.2623456-.0092491.0092593-.0277472.0401235-.0400793.0679013-.0308302.0833333-.4994495.0802469-.5426118 0-.0184981-.0339506-.0339132-1.2098766-.0462453-2.9537037-.0092491-1.8950618-.0277472-2.9382716-.0462453-3.0092593-.0184981-.058642-.0339132-.3271605-.0339132-.595679 0-.4567901-.0585774-1.6358025-.1264039-2.5987654-.0184981-.2376544-.0400793-.595679-.0462453-.7962963-.0154151-.3796297-.0308303-.4074074-.1541511-.3148148-.0400793.0308642-.138736.0432098-.3083021.0462963-.2343097 0-.2528078-.0061729-.3391324-.0925926-.0770755-.0771605-.1140718-.0895062-.2466417-.0925926-.1048227 0-.1726492.0154321-.1973134.0462963zm-9.94274386-.2596154c-.09557366.0185185-.20964545.0802469-.26822286.1388889-.05241136.0493827-.05549438.1512346-.05549438 1.2962963.00308302.6851852.01541511 1.3395062.03083021 1.4598765.01541511.117284.0431623.6604939.05857741 1.2067902.01849813.5432098.04624532 1.0493827.06474345 1.1265432.03699625.1574074.09249064 2.1512345.10790575 3.8549382.00616604.654321.03391323 1.5987655.0585774 2.0987655.05549439 1.0277778.06782647 3.287037.01849813 3.3179012-.0431623.0277778-.03699626.3919753.00616604.4969136.07090949.1635802.15106805.2283951.28055495.2283951.06166042 0 .16648315.0216049.22814358.0462962.11715481.0493828.42545694.0648149.45320414.0185186.00924906-.0123457.09249064-.0339506.18498128-.0432099.16031711-.0154321.29597005-.095679.29597005-.1759259 0-.0185186.01233208-.0308642.03083021-.0308642.03083022 0 .15415107-.2469136.15415107-.3148148 0-.021605.02158115-.0679013.04624532-.0987655.02466417-.0339506.04624532-.095679.04624532-.1388889 0-.0432098.02158115-.1080247.04624532-.1388889.02466417-.0339506.04624532-.0987654.04624532-.1450617s.02158115-.0895062.04624532-.1018518c.0277472-.0092593.04624532-.0555556.04624532-.1234568 0-.058642.02158115-.1265432.04624532-.154321.02466417-.0246914.04624532-.0802469.04624532-.1203704 0-.0432099.02158115-.0833333.04624532-.095679.02466418-.0092593.04624533-.0493827.04624533-.0895062 0-.0401234.02158114-.0987654.04624532-.132716.02466417-.0308642.04624532-.0895062.04624532-.1265432 0-.0370371.01849812-.0802469.04007927-.0925926.02466417-.0123457.05241137-.0802469.06166043-.1481482.01233209-.0679012.03391324-.1265432.05241136-.132716.01541511-.0061729.03083022-.0432099.03083022-.0833334 0-.037037.01849813-.0864197.0431623-.1049382.02466417-.021605.05241136-.0925926.06474345-.1604939.01233208-.0648148.03391323-.1203703.04932834-.1203703.0154151 0 .02774719-.021605.02774719-.0493827 0-.0648149.12640388-.3518519.15415107-.3518519.01233208 0 .03083021-.0524691.0431623-.1203704.00924906-.0648148.04007927-.1358024.06474344-.1574074.02466418-.0216049.04624533-.0833333.04624533-.1358024 0-.0524692.02158114-.1234568.04624532-.154321.02466417-.0339506.04624532-.0864198.04624532-.1141976 0-.0308642.0154151-.0586419.03391323-.0648148.01541511-.0061728.04007928-.0679012.04932834-.1419753.00924907-.0709876.0277472-.1296296.0431623-.1296296.01541511 0 .03699626-.0555556.04624532-.1234568.01233209-.0679012.04007928-.1388889.06166043-.1574074.02466417-.0185185.0431623-.0648148.0431623-.1018519 0-.0339506.02158115-.0925926.04624532-.1234567.02466417-.0339507.04624532-.1018519.04624532-.1481482 0-.0493827.02158115-.095679.04624532-.1049383.02466417-.0123456.04624532-.037037.04624532-.0617284 0-.0339506.06166043-.0432098.28980404-.0432098.2651398 0 .292887.0061728.3113851.0617284.0092491.0339506.0308302.0617284.0462453.0617284.0154152 0 .0339133.0432098.0462454.0925925.0123321.0524692.0339132.0925926.0493283.0925926s.0339132.0339507.0462453.0771605c.0092491.0401235.0369963.0895062.0616605.1111111.0246641.0185186.0431623.0617284.0431623.0956791 0 .0308642.0339132.095679.0770755.1419753s.0863246.1111111.0955737.1450617c.012332.0308642.0400792.0771605.0616604.1018518.0246641.021605.0431623.0617284.0431623.0833334 0 .0246913.0184981.0555555.0400793.0679012.0431623.0277778.0986566.1141975.144902.2191358.0154151.037037.0431623.0679012.0585774.0679012s.0339132.0246914.0462453.0524692c.009249.0308642.0462453.095679.0801585.1481481.0339133.0493827.0770756.1265432.0986567.1697531.0215812.0432099.0678265.1049383.1017397.1388889.0709095.0709877.1264039.154321.1695662.2561728.0154151.0370371.0585774.0987655.0894076.1358025.0339133.0339506.1017397.1419753.147985.2376543.0462454.095679.1017398.1851852.1233209.1975309.0215812.0123457.0400793.0493827.0400793.0802469s.0215811.0740741.0462453.095679c.0246642.021605.0462453.0524692.0462453.0679013s.0215812.0493827.0462453.074074c.0246642.0277778.0462454.0802469.0462454.1234568s.0215811.0833334.0462453.0925926c.0246642.0123457.0462453.0462963.0462453.0771605s.0123321.058642.0277472.058642.0431623.0432099.0647434.0925926c.0215812.0524691.0493284.0925926.0616605.0925926s.0308302.0524691.0431623.1172839c.009249.0679013.0524113.1574074.0955736.2037037s.0770756.1111111.0770756.1419753.0184981.0709877.0431623.0833334c.0462453.0277777.1664831.2253086.286721.478395.0493283.0987655.1048227.1790124.1264038.1790124.0184982 0 .0369963.0216049.0369963.0462963 0 .0339506.0339132.0462963.1202378.0462963.0678265 0 .135653.0185185.1572341.0462963.0524114.0648148.5426118.0648148.6659326 0 .0493284-.0246914.141819-.0462963.2065625-.0462963.0924906 0 .1202378-.0154321.144902-.0740741.0154151-.0401235.0431623-.0833333.0585774-.095679.0246641-.0123457.0339132-.4475309.0339132-1.3549383 0-1.0833333-.0092491-1.345679-.0400793-1.3734568-.0339132-.0277778-.0462453-.3055555-.0616604-1.3672839-.0123321-.904321-.0277472-1.3395062-.0493283-1.345679-.0215812-.0061729-.0339133-.2160494-.0339133-.6234568 0-.4722223-.009249-.6358025-.0462453-.7191358-.0369963-.0925926-.0462453-.3117284-.0462453-1.2623457 0-.8858025-.0092491-1.1790124-.0431623-1.2746914-.0585774-.1790123-.0832416-2.1265432-.0431623-3.5648148.0462453-1.6512346.0400793-1.8179012-.0493284-1.8765432-.0369962-.0246914-.3545474-.0617284-.7368421-.0864198-.1634001-.0123456-.2682228-.0030864-.3298833.0246914l-.0924906.0401235v.5092592c-.003083 1.4135803-.0246642 2.5555556-.0554944 2.9166667-.0493283.5709876-.0493283 3.9166667 0 4.0061728.0246642.0462963.0431623.4382716.0585774 1.271605.0123321.7808642.0339133 1.2469135.0585774 1.3271605.0215812.0802469.0308302.3024691.0246642.6388889-.0092491.4722222-.0154151.5185185-.0709095.5617283-.0894076.0679013-.4069588.0648149-.5241136-.0061728-.0986567-.0617284-.2928871-.3919753-.2928871-.4969136 0-.0339506-.012332-.0648148-.0246641-.0709876-.0339133-.0123457-.1603171-.2345679-.1603171-.2808642 0-.0493827-.2127285-.4783951-.2466417-.5-.0184982-.0123457-.0308303-.0524692-.0308303-.095679 0-.0401235-.009249-.0740741-.0246641-.0740741-.0123321 0-.0554944-.0740741-.0986567-.1635803-.0431623-.0864197-.1140718-.2191358-.1603171-.287037-.0493284-.0709877-.0863246-.1481481-.0863246-.1697531-.003083-.0246913-.0369963-.0987654-.0770756-.1666666-.0431623-.0679013-.0894076-.154321-.1079057-.1944445-.0154151-.037037-.0431623-.0679012-.0585774-.0679012s-.0369963-.0401235-.0493283-.0895062c-.0092491-.0493827-.0400793-.1080247-.0647435-.1296296-.0246642-.0185185-.0431623-.0524692-.0431623-.0740741s-.0215811-.0555556-.0462453-.0771605-.0462453-.0617284-.0462453-.0925926-.0215812-.0709876-.0462454-.0925926c-.0246641-.0216049-.0462453-.058642-.0462453-.0833333 0-.0493827-.1634001-.2685185-.2620568-.3549383-.0339132-.0308642-.0955737-.0524691-.138736-.0524691-.1387359-.0030864-.47478524.1049382-.60735516.191358-.14490201.0925926-.20039639.1635802-.2589738.345679-.02158115.0679012-.0585774.1450617-.08015855.1728395-.02158115.0246914-.04932834.0925926-.05857741.1450617-.01233208.0555556-.03083021.0987655-.0431623.0987655-.01233208 0-.03391323.0339506-.0431623.0771605-.01233208.0432098-.06166042.1450617-.11098876.228395-.05241137.0802469-.09249065.1728395-.09249065.2006173s-.01233208.0493827-.03083021.0493827c-.01541511 0-.04007928.0370371-.04932834.0833334-.01233209.0462963-.04007928.1049382-.06474345.1265432-.02158115.0216049-.04007928.0679012-.04007928.1018518s-.02158115.0679013-.04624532.0771605c-.02466417.0123457-.04624532.0555556-.04624532.1049383 0 .0462963-.02158115.1018518-.04624532.1234568-.02466417.0216049-.04624532.058642-.04624532.0802469 0 .0246914-.04007928.1203704-.08940762.2098765-.04624532.0925926-.09557366.2006173-.10790575.2469136-.00924906.0432099-.03391323.0802469-.04932834.0802469-.01849813 0-.03083021.0277778-.03083021.058642 0 .0339506-.01849813.0802469-.04007928.1018519-.02158115.0216049-.04932834.0648148-.06166043.0925926-.0154151.0462963-.0585774.0555555-.25897379.0555555-.13256992 0-.26205682-.0154321-.28672099-.0308642-.04007927-.0246913-.04624532-.404321-.05549438-3.0432099-.00308302-1.6604938-.01849813-3.0308642-.03391324-3.0493827-.0154151-.0185185-.03391323-.4228395-.04624532-.8981481-.01233208-.4753087-.03391323-.9814815-.04932834-1.1265432-.03083021-.2469136-.11407179-1.5308642-.144902-2.2006173-.01233209-.2932099-.01541511-.2993827-.08940762-.2993827-.04007928 0-.07399251.0123456-.07399251.0308642 0 .0185185-.11715482.0308642-.29288703.0308642-.16031711 0-.29288703-.0092593-.29288703-.0246914 0-.0123457-.04624532-.0524691-.10173971-.0925926-.09865668-.0648148-.17881524-.0771605-.31446818-.0462963zm21.64280996-.1959347c-.0092491.0185185-.0431623.0308642-.0709095.0308642s-.0924906.0216049-.138736.0462962c-.0493283.0246914-.1818982.0524692-.292887.0617284-.2774719.0246914-.4994494.0925926-.5981061.1851852-.0462453.0432099-.0955737.0771605-.1109888.0771605s-.0524114.0246914-.0801586.058642c-.0462453.0493827-.0493283.1234568-.0400792.6234568.006166.3117284.0277472.7901234.0493283 1.0617284.0462453.6666666.0955737 1.595679.1233209 2.3641975.0123321.3487654.0339132.6481482.0431623.6666667.012332.0185185.0339132.6882716.0524113 1.4907407.0154151.7993827.0431623 1.5339506.0585774 1.6296296.0184982.0956791.0462454.4876544.0647435.8703704.0184981.3827161.0493283.75.0678265.8179013.0184981.0679012.0431623.3271604.0554943.574074.0123321.2469136.0308302.4660494.0431623.4876543.0123321.0185186.0431623.3580247.0678265.7530865.0277472.3919753.0616604.9320987.0801586 1.1944444.0184981.2623457.0369962.8395062.0400792 1.2808642 0 .441358.0154151.8611111.0277472.9351852l.0246642.1296296.2435587-.0185185c.1664831-.0154321.3021361-.0092593.4192909.0185185.151068.0370371.1880643.0370371.3175512-.0092592.0801585-.0277778.2250606-.0524692.3175512-.0524692.2250606 0 .2651398-.0493827.2343096-.2993827-.0123321-.0987654-.0246642-.3148148-.0246642-.4845679-.003083-.1666667-.0215811-.4444444-.0462453-.6172839-.0246641-.1697531-.0524113-.7067902-.0647434-1.1913581s-.0339133-.8950617-.0493284-.9135802c-.0184981-.0216049-.0215811-.4012346-.012332-.941358.006166-.5.0184981-1.2376544.0215811-1.6388889.0092491-.6944445.0123321-.7345679.0739925-.7901235.0339132-.0339506.1079058-.0709876.1634001-.0833333.0554944-.0123457.135653-.0401235.1788153-.0617284.1109888-.058642.6135212-.0895062.7645893-.0493827.1572341.0432099.1788152.0895061.434706.9907407.0277472.0925926.0678265.2098766.0924906.2561729.0246642.0493827.0431623.1111111.0431623.1358024 0 .0462963.0277472.1512346.141819.5493827.0246642.0833334.0770755.2870371.1202378.4475309.0400793.1604938.1171549.4012346.1664832.5339506.0524114.1327161.0955737.2685185.0955737.2993827s.012332.0679013.0308302.0771605c.0154151.0092593.0431623.0771605.0616604.1481482.0184981.0709876.0524114.1697531.0739925.2222222.0246642.0493827.0863246.2160494.141819.3703704.0585774.1512345.1109888.2901234.1233209.3086419.009249.0154321.0462453.1141976.0739925.2160494.0616604.2037037.1264038.3796297.1911473.5339506.0246642.0555556.0431623.1141976.0431623.1296297 0 .0617284.4100418 1.0895062.4994495 1.25.0184981.0339506.0832415.1512345.1387359.2623457.0585774.1111111.144902.2685185.1942304.3549382l.0863246.154321.3329663.0092593c.1818982.0030864.3483814.0216049.3699625.0401234.0739925.058642.3884607.0493827.4840344-.0154321l.0894076-.0617284-.0123321-.5092592-.0154151-.5123457-.141819-.2777778c-.0801585-.154321-.144902-.2901234-.144902-.3024691s-.0400793-.1111111-.0894076-.2160494-.138736-.3240741-.2034794-.4845679c-.1541511-.3950617-.2003964-.5185185-.2651398-.6635802-.0277472-.0679013-.0739926-.1882716-.1017398-.2685186-.0277471-.0802469-.0616604-.1728395-.0770755-.2006172-.0154151-.0308642-.0739925-.1666667-.1294869-.3024692s-.1140718-.2623457-.1294869-.2839506-.0400793-.0833333-.0524113-.1388889c-.0154151-.0555555-.0554944-.1790123-.0924907-.2716049-.0894076-.2376543-.2034794-.5462963-.3268002-.9104939-.0585775-.169753-.1264039-.345679-.1510681-.3919753-.0246642-.0432098-.0462453-.0987654-.0462453-.1234568 0-.0617283-.1757322-.5864197-.2312266-.6944444-.0246642-.0462963-.0462453-.1080247-.0462453-.1358025 0-.0524691-.1171548-.3425926-.283638-.7067901-.0801586-.1790123-.0894076-.2283951-.0801586-.4475309l.0092491-.2438271.2188945-.1111111c.1171548-.058642.3268003-.1604939.4624532-.2222222.1757322-.080247.3021361-.1697531.4532042-.3148149.1140718-.1111111.2065624-.2160493.2065624-.2314814 0-.0401235.2435587-.3888889.3545475-.5030865.1202378-.1296296.3422153-.4567901.3977097-.5925926.0277472-.0648148.0493284-.169753.0493284-.2314814s.0184981-.2098766.0431623-.3271605c.0709094-.3518519.1264038-1.4475309.0832415-1.6635803-.0184981-.1018518-.0339132-.2438271-.0339132-.3179012s-.0184981-.1728395-.0431623-.2191358c-.0215812-.0462963-.0585774-.1820988-.0770755-.2993827-.0647435-.3734568-.2528078-.6851852-.6566836-1.095679-.2774719-.2839507-.5580269-.5246914-.6073552-.5246914-.0154151 0-.0339132-.0092593-.0400793-.0246914-.0154151-.0339506-.2034794-.1604938-.2404756-.1604938-.0154151 0-.0308303-.0123457-.0308303-.0277778s-.0308302-.0401234-.0678264-.0524691c-.0400793-.0123457-.1171548-.0555556-.1726492-.0987654-.0554944-.0432099-.1603171-.0895062-.2312266-.1049383-.1634002-.0401235-.8108346-.0802469-1.3256992-.0833333-.2250606-.0030865-.4223739-.0185186-.4593702-.0370371-.0369962-.0216049-.3699626-.0462963-.7923365-.0617284-.4007928-.0154321-.7645893-.0339506-.8108346-.0401234-.0462453-.0092593-.0924906-.0030864-.1017397.0123457zm1.8559789 1.5771604c.0462453.0185186.2466417.0401235.440872.0493828.1942304.0092592.4131249.0339506.4871174.0586419.0709095.0246914.1818982.0432099.2435587.0432099.0585774 0 .2003964.0432099.3144682.095679.1664831.0802469.2312266.1327161.3514644.2932099.0801585.1080247.144902.2098765.144902.2253086s.0092491.0339507.0246642.0401235c.0308302.0123457.2219775.2993827.2219775.3333333 0 .0154321.0184981.0462963.0400793.0679013.0246641.0216049.0739925.132716.1140718.2407407.0647434.1882716.0678264.2314815.0493283.7098766-.0123321.2808642-.0400793.5864197-.0616604.6790123-.1202379.4814815-.141819.5895062-.141819.6697531 0 .1018518-.0986567.3981481-.151068.4506173-.0184982.0185185-.0339133.0493827-.0339133.0648148 0 .0185185-.0524113.0679012-.1171548.1111111-.0616604.0432099-.1202378.0833333-.1294869.0925926-.0154151.0154321-.2435587.1296296-.6196873.3055555-.1109888.0524692-.2250605.0956791-.2528077.0956791-.0308302 0-.0770756.0123456-.1079058.0277777-.0277472.0123457-.147985.0555556-.2682228.095679-.1171549.0401235-.2281436.080247-.2466418.0925926-.0154151.0123457-.0894076.0308642-.1603171.0432099-.0739925.0092593-.2096454.0524692-.3052191.095679-.3113851.1388889-.7892534.1419753-.875578.0061729-.0431623-.0709877-.0739926-.3148148-.1233209-1.0092593-.0154151-.2283951-.0431623-.4938272-.0585774-.5864197-.0524114-.2808642-.1017397-.8641976-.0955737-1.1419754.0030831-.1450617-.009249-.6882716-.0308302-1.2098765l-.0400793-.9506173.0739926-.0617284c.0678264-.0555555.1233208-.058642.6505175-.0617284.3422153 0 .6104382.0123457.6628496.0339506z" fill="#c00" fill-rule="evenodd"/></svg>